<svg width="1440" height="50" viewBox="0 0 1440 50" fill="none" xmlns="http://www.w3.org/2000/svg">
<path d="M914.9 17.3894L938.976 18.9288L927.19 0.0480652H917.281C917.642 0.529102 917.954 1.01014 918.219 1.49118C923.871 11.3524 922.909 12.0018 908.478 8.03328C903.235 6.59017 897.558 3.55964 893.109 0.072117H880.987C890.656 14.9843 893.999 16.0425 914.9 17.3894Z" fill="#BF2C2F"/>
<path d="M901.407 84.0131L888.732 63.6893C876.706 44.4238 874.806 43.2933 851.98 41.8262L827.905 40.2869L839.281 58.5182L881.155 82.6903L901.407 84.0131ZM870.933 73.0936C862.13 70.6644 852.101 63.7615 848.637 57.7485C842.985 47.8872 843.947 47.2379 858.378 51.2064C867.181 53.6356 877.211 60.5385 880.674 66.5515C886.326 76.4127 885.364 77.0621 870.933 73.0936Z" fill="#20C7AB"/>
<path d="M799.355 35.4765L802 30.8826L808.11 40.5274L823.719 49.5468L811.669 31.0269L845.991 33.4802L880.313 35.9335L898.977 64.6033L917.642 93.2731L896.885 91.7818L911.893 100.441L924.04 101.09L921.274 105.876L931.712 111.913L996.291 0.0480997H973.37C974.741 2.06845 976.809 3.9926 979.118 5.62813L975.053 12.6513C971.325 10.1258 968.127 6.27753 963.869 0.0240479H953.551L968.559 23.8835L965.457 29.2711L946.985 0.0480997H936.883L955.187 28.1888L920.865 25.7355L886.543 23.2822L871.438 0.0480997H861.24L878.317 27.0583L840.772 25.0861C840.772 25.0861 815.012 23.7151 806.402 23.2822L809.36 18.1351L837.429 19.2174L868.335 20.396L855.011 0.0480997H845.39L854.145 11.7613L832.979 10.3423C825.042 9.81315 819.871 9.04349 815.662 7.26365L819.655 0.336722C821.795 1.44311 823.984 2.33303 826.052 2.62165C833.027 3.63182 835.264 3.39131 834.158 0.0480997H805.897L788.916 29.4395L799.355 35.4765ZM934.141 48.5126C941.862 49.4265 947.226 50.6772 951.795 53.0103L948.115 59.36C945.71 58.0131 943.185 56.9548 940.828 56.594C931.303 55.199 930.582 56.1611 935.224 64.2184C936.571 66.5755 938.879 68.8364 941.549 70.7124L937.484 77.7356C933.492 75.0177 930.101 70.7846 925.338 63.6893L913.529 46.0593L934.141 48.5126ZM926.108 34.1296L961.608 36.0056L958.458 41.4413L929.571 39.8058L899.002 38.0741L915.477 64.2425L931.039 88.9678L927.936 94.3554L908.622 63.8095L888.587 32.1333L926.108 34.1296Z" fill="#FFA227"/>
<path d="M920.889 106.526L892.003 104.89L861.433 103.158L877.908 129.327L893.47 154.052L890.367 159.44L871.054 128.894L851.018 97.2176L888.563 99.1898L911.893 100.416L896.885 91.7578L883.344 90.7957L849.022 88.3424L830.334 59.6967L823.719 49.5468L808.11 40.5274L820.713 60.4663L840.748 92.1426L803.203 90.1704C803.203 90.1704 777.444 88.7994 768.833 88.3665L771.791 83.2194L799.86 84.3017L830.767 85.4803L813.978 59.865L798.73 36.6069L799.355 35.5005L788.916 29.4635L713.778 159.608L724.217 165.645L726.863 161.051L732.972 170.696L748.581 179.715L736.532 161.195L770.854 163.649L805.175 166.102L823.84 194.772L842.504 223.442L821.747 221.974L836.756 230.633L848.902 231.283L846.136 236.069L856.574 242.106L931.712 111.961L921.274 105.876L920.889 106.526ZM795.386 75.4266C787.449 74.8974 782.278 74.1278 778.069 72.3479L782.062 65.421C784.202 66.5274 786.391 67.4173 788.459 67.7059C797.984 69.1009 798.706 68.1389 794.064 60.0815C792.861 57.9649 790.889 55.9205 788.556 54.1648L792.26 47.7429C796.204 50.5089 799.788 54.4053 804.141 60.2258L816.552 76.8456L795.386 75.4266ZM757.817 140.511C749.88 139.982 744.709 139.212 740.5 137.432L744.493 130.505C746.633 131.612 748.822 132.502 750.89 132.79C760.415 134.185 761.137 133.223 756.495 125.166C755.292 123.049 753.32 121.005 750.987 119.249L754.691 112.827C758.635 115.593 762.219 119.49 766.572 125.31L778.983 141.93L757.817 140.511ZM765.634 155.231C765.634 155.231 739.875 153.86 731.264 153.427L734.223 148.28L762.291 149.362L793.198 150.541L776.409 124.925L761.161 101.667L764.456 95.9669L783.168 125.551L803.203 157.227L765.634 155.231ZM845.751 155.88L811.429 153.427L792.765 124.757L774.101 96.0871L808.422 98.5404L842.744 100.994L861.409 129.664L880.073 158.333L845.751 155.88ZM859.004 178.657C866.724 179.571 872.088 180.822 876.658 183.155L872.978 189.504C870.572 188.158 868.047 187.099 865.69 186.739C856.165 185.344 855.444 186.306 860.086 194.363C861.433 196.72 863.742 198.981 866.412 200.857L862.347 207.88C858.354 205.162 854.963 200.929 850.201 193.834L838.391 176.204L859.004 178.657ZM850.97 164.298L886.471 166.174L883.32 171.61L854.434 169.974L823.864 168.243L840.339 194.411L855.901 219.136L852.798 224.524L833.485 193.978L813.449 162.302L850.97 164.298ZM896.572 113.573C904.293 114.487 909.657 115.737 914.227 118.071L910.547 124.42C908.141 123.073 905.616 122.015 903.259 121.654C893.734 120.259 893.013 121.221 897.655 129.279C899.002 131.636 901.311 133.897 903.98 135.773L899.916 142.796C895.923 140.078 892.532 135.845 887.77 128.75L875.96 111.12L896.572 113.573Z" fill="#FFA227"/>
<path d="M247.245 32.2775C248.52 40.5995 251.478 42.7161 259.704 41.1767C267.929 39.6134 270.094 36.5107 268.843 28.1887C267.569 19.8668 264.61 17.7502 256.385 19.2896C248.159 20.8529 245.994 23.9556 247.245 32.2775Z" fill="#20C7AB"/>
<path d="M229.302 13.6374C227.763 16.2831 216.915 21.4542 205.202 25.1101L183.892 31.7484L184.109 32.5181L189.328 35.5245L189.039 34.4663L210.133 28.3811L231.226 22.296L235.868 40.9603L240.51 59.6245L263.504 53.5394L286.497 47.4543L281.23 24.0999L275.963 0.745569L257.058 5.55594L238.153 10.3663L235.219 0.0480652H229.446C230.264 6.71043 230.264 11.9778 229.302 13.6374ZM258.212 9.76501C271.994 6.54206 273.197 7.52819 277.069 25.4468L281.182 44.5921L262.109 49.4506C243.613 54.1647 242.939 53.852 240.077 39.2766C236.301 20.0592 239.981 14.0462 258.212 9.76501Z" fill="#FFA227"/>
<path d="M223.938 45.6505C222.664 37.3285 219.705 35.212 211.48 36.7513C205.996 37.7855 203.254 39.5653 202.364 43.0769L222.76 54.8383C224.299 52.8179 224.588 49.9317 223.938 45.6505Z" fill="#388CBA"/>
<path d="M171.145 25.0379L176.075 16.4995L177.807 23.4505L200.801 17.3654L223.794 11.2803L221.221 0.0480652H216.675L218.479 8.41811L199.406 13.2766C185.191 16.8844 181.511 17.4616 179.274 10.9676L185.528 0.144273C187.187 5.0268 190.362 6.25344 197.024 5.00275C201.739 4.11283 204.481 2.69377 205.683 0.072117H171.626L160.682 19.025L171.145 25.0379Z" fill="#BF2C2F"/>
<path d="M289.889 23.234C291.38 29.8724 292.318 36.4385 292.607 41.4894L285.054 54.5736C280.533 56.8345 274.375 59.3118 267.881 61.3322L246.571 67.9705L246.788 68.7401L252.007 71.7466L251.718 70.6883L272.812 64.6032L280.533 62.3905L274.471 72.9011C274.375 72.9252 274.279 72.9252 274.183 72.9492C268.699 73.9834 265.957 75.7633 265.067 79.2748L269.372 81.7522L269.396 81.7762L279.811 87.7892L330.464 0.0480652H316.538L312.04 7.84086C311.944 7.86492 311.848 7.86492 311.752 7.88897C303.526 9.45234 301.361 12.555 302.612 20.877C302.756 21.7669 302.925 22.5606 303.093 23.3303L297.152 33.6004L295.06 26.1443L289.287 5.65215L308.649 0.0480652H290.49L284.982 1.44307L289.889 23.234Z" fill="#BF2C2F"/>
<path d="M222.76 54.8382L202.364 43.0768C201.931 44.8326 201.931 46.9732 202.34 49.7392C203.615 58.0611 206.573 60.1777 214.799 58.6384C218.767 57.8687 221.317 56.7383 222.76 54.8382Z" fill="#388CBA"/>
<path d="M167.633 90.1704L147.141 95.3897L152.048 117.181C154.741 129.158 155.703 141.136 154.164 143.782C152.625 146.428 141.777 151.599 130.064 155.255L108.754 161.893L108.971 162.663L114.19 165.669L113.901 164.611L134.995 158.526L156.088 152.441L160.73 171.105L165.372 189.769L188.366 183.684L211.359 177.599L206.092 154.245L200.825 130.89L181.92 135.701L163.015 140.511L157.243 120.019L151.47 99.5266L172.564 93.4415L193.657 87.3563L198.299 106.021L202.941 124.685L225.935 118.6L248.928 112.515L243.661 89.1602L238.394 65.8059L219.489 70.6163L200.584 75.4266L194.812 54.9345L189.328 35.4765L184.109 32.47L189.617 52.0482C196.784 77.6154 193.321 83.6524 167.633 90.1704ZM183.074 139.91C196.856 136.687 198.059 137.673 201.931 155.591L206.044 174.737L186.971 179.595C168.475 184.309 167.802 183.997 164.939 169.421C161.163 150.204 164.843 144.191 183.074 139.91ZM220.643 74.8494C234.425 71.6264 235.628 72.6126 239.5 90.5312L243.613 109.676L224.54 114.535C206.044 119.249 205.371 118.936 202.508 104.361C198.732 85.1195 202.412 79.1306 220.643 74.8494Z" fill="#FFA227"/>
<path d="M85.5441 149.17L95.9826 155.207L100.913 146.668L102.645 153.619L125.638 147.534L148.632 141.449L143.365 118.095L138.097 94.7402L129.655 96.8808L138.506 81.5598L140.238 88.5108L163.232 82.4257L186.225 76.3405L180.958 52.9862L175.69 29.6319L167.248 31.7725L171.169 24.9899L160.73 18.9529L85.5441 149.17ZM139.204 119.417L143.317 138.563L124.243 143.421C110.029 147.029 106.349 147.606 104.112 141.112L110.366 130.289C112.025 135.171 115.2 136.398 121.862 135.147C130.088 133.584 132.253 130.481 131.002 122.159C129.848 114.511 127.178 112.13 120.347 113.02L126.36 102.581C134.538 101.427 136.029 104.601 139.204 119.417ZM176.797 54.3331L180.91 73.4784L161.837 78.3369C147.622 81.9446 143.942 82.5219 141.705 76.0279L147.959 65.2045C149.618 70.0871 152.793 71.3137 159.455 70.063C167.681 68.4997 169.846 65.397 168.595 57.075C167.441 49.4265 164.771 47.0454 157.94 47.9353L163.953 37.4968C172.107 36.3423 173.598 39.5172 176.797 54.3331Z" fill="#BF2C2F"/>
<path d="M1283.9 53.1786L1278.3 33.2877C1275.22 22.3441 1269.23 13.5412 1265 13.7576C1260.77 13.95 1255.91 16.5476 1254.17 19.5301C1252.44 22.5125 1254.27 24.7974 1258.22 24.6291C1262.3 24.4367 1261.85 30.4015 1257.18 38.4829C1252.52 46.5644 1247.56 49.9316 1245.68 46.3238C1243.88 42.8123 1240.99 42.4034 1239.26 45.3858C1232.24 57.556 1244.63 64.507 1263.65 59.0473L1283.9 53.1786Z" fill="#FFA227"/>
<path d="M1277.82 7.02314L1283.42 26.914C1286.5 37.8576 1292.49 46.6606 1296.72 46.4441C1300.96 46.2517 1305.81 43.6541 1307.55 40.6717C1309.28 37.6892 1307.45 35.4043 1303.51 35.5727C1299.42 35.7651 1299.87 29.8002 1304.54 21.7188C1309.21 13.6374 1314.16 10.2701 1316.04 13.8779C1317.84 17.3895 1320.73 17.7984 1322.46 14.8159C1326.74 7.38391 1323.81 1.92414 1316.54 0.0240479H1302.9C1301.34 0.31267 1299.73 0.697499 1298.07 1.17854L1277.82 7.02314Z" fill="#388CBA"/>
<path d="M1405.99 22.3441C1419.51 17.7021 1420.13 16.3793 1415.64 1.49118C1415.49 0.986087 1415.35 0.529102 1415.2 0.0480652H1402.5C1401.57 1.63549 1400.53 3.41532 1399.4 5.38758C1386.22 28.2128 1386.53 29.0065 1405.99 22.3441Z" fill="#BF2C2F"/>
<path d="M1441.35 2.88618C1441.92 1.90006 1442.45 0.962035 1442.98 0.0480652H1423.24C1423.67 1.92411 1424.29 4.16093 1425.11 6.80663C1429.83 22.4644 1430.07 22.3922 1441.35 2.88618Z" fill="#FFA227"/>
<path d="M1399.04 34.6587L1417.01 45.0251C1429.42 23.4987 1428.77 22.7771 1409.67 29.3192C1404.07 31.2434 1400.77 32.6384 1399.04 34.6587Z" fill="#388CBA"/>
<path d="M1434.92 55.3673L1444.16 39.3728C1444.69 39.2766 1445.17 39.2045 1445.75 39.0361C1449 38.0981 1451.98 37.7614 1454.77 37.9778V29.9205C1453.42 29.1267 1452.15 28.333 1450.99 27.5393L1454.77 20.9732V0.0480652H1452.94L1424.49 49.3303L1434.92 55.3673Z" fill="#BF2C2F"/>
<path d="M1400.05 50.1962C1404.76 65.854 1405.03 65.7818 1416.28 46.2998C1416.55 45.8429 1416.77 45.4821 1417.01 45.0491L1399.04 34.6828C1396.63 37.4488 1397.43 41.4895 1400.05 50.1962Z" fill="#388CBA"/>
<path d="M1390.6 44.8567C1385.88 29.1989 1385.62 29.2711 1374.36 48.7531C1361.18 71.5783 1361.49 72.372 1380.98 65.7096C1394.47 61.0917 1395.1 59.7688 1390.6 44.8567Z" fill="#BF2C2F"/>
<path d="M1425.23 75.0177C1425.06 74.3442 1424.82 73.8151 1424.61 73.2619L1434.92 55.3914L1424.49 49.3544L1349.35 179.475L1359.79 185.512L1369.02 169.517C1369.55 169.421 1370.03 169.349 1370.61 169.181C1385.59 164.875 1395.6 172.909 1401.54 194.05L1406.78 212.642L1415.95 217.934L1411.09 196.431C1406.71 177.046 1401.85 170.768 1385.28 163.023C1381.67 161.34 1378.55 159.512 1375.85 157.708L1380.25 150.059C1383.17 151.479 1386.32 153.282 1389.59 155.567C1404.6 166.054 1412.46 167.136 1431.44 161.22L1454.79 153.956V153.908L1448.35 130.12C1443.25 111.336 1437.71 104.409 1422.2 97.3619C1418.88 95.8706 1416 94.2111 1413.47 92.5755L1417.82 85.0473C1420.49 86.3942 1423.38 88.0778 1426.34 90.1944C1436.56 97.5302 1444.02 100.176 1454.79 99.0455V90.8919C1439.04 93.6338 1428.48 88.1019 1425.23 75.0177ZM1439.13 128.99L1444.43 147.799L1425.76 153.812C1405.29 160.402 1391.46 155.423 1387.66 140.078C1387.49 139.404 1387.25 138.875 1387.04 138.322L1406.59 104.457C1407.12 104.361 1407.6 104.289 1408.18 104.12C1423.16 99.7911 1433.17 107.848 1439.13 128.99Z" fill="#BF2C2F"/>
<path d="M575.745 19.1212L552.343 25.8557L557.971 49.7873L563.382 72.7568L575.264 79.6356L569.852 56.7142L564.2 32.7345L587.675 25.9519L611.149 19.1933L606.603 0.0480652H596.357L599.147 12.3867L575.745 19.1212Z" fill="#FFA227"/>
<path d="M572.161 13.3006C587.867 8.77889 590.465 7.84086 589.382 0.0480652H577.356C575.384 1.92411 571.608 3.75205 568.024 4.4255C563.502 5.29137 560.977 4.20903 559.293 0.0480652H548.975L553.304 18.7123L572.161 13.3006Z" fill="#FFA227"/>
<path d="M527.834 46.6846C536.059 43.8706 539.306 44.8327 541.327 50.6532C542.481 53.9724 542.818 57.9169 542.265 60.5866L553.473 67.0566C554.531 64.1222 553.425 59.3359 551.068 49.8114L546.353 30.7623L525.789 37.0399L509.891 41.8983L522.254 49.0417C523.6 48.1999 525.428 47.5024 527.834 46.6846Z" fill="#FFA227"/>
<path d="M585.125 57.1231L582.071 42.9806L594.385 40.0944C601.144 38.507 608.335 34.346 610.356 30.8825C612.809 26.6254 606.82 26.5051 592.1 30.4977L570.189 36.4385L575.095 57.5801C577.789 69.1971 581.83 77.038 584.091 74.9936C586.304 72.9252 586.785 64.8919 585.125 57.1231Z" fill="#388CBA"/>
<path d="M589.719 48.2961C589.214 49.162 589.936 52.0482 591.306 54.6939C592.677 57.3396 595.516 56.5219 597.632 52.866C599.749 49.2101 599.027 46.3239 596.045 46.4682C593.062 46.6125 590.224 47.4303 589.719 48.2961Z" fill="#20C7AB"/>
<path d="M621.588 9.95743C623.055 8.61052 623.777 4.73818 623.632 0.0480652H614.685C617.09 7.31172 619.856 11.5448 621.588 9.95743Z" fill="#388CBA"/>
<path d="M536.54 17.4375L524.226 20.3238C517.467 21.9112 510.276 26.0722 508.255 29.5356C505.802 33.7928 511.791 33.9131 526.511 29.9205L548.446 23.9797L543.539 2.83808C543.323 1.87601 543.082 0.937983 542.842 0.0480652H532.909C533.053 1.1304 533.245 2.21273 533.486 3.29506L536.54 17.4375Z" fill="#388CBA"/>
<path d="M528.868 12.1222C529.373 11.2563 528.651 8.37007 527.28 5.72436C525.909 3.07866 523.071 3.89642 520.955 7.5523C518.838 11.2082 519.559 14.0944 522.542 13.9501C525.524 13.8058 528.387 12.988 528.868 12.1222Z" fill="#BF2C2F"/>
<path d="M563.598 73.6949L545.03 79.4673L526.462 85.2397L521.748 67.8022C518.381 55.3433 517.828 51.6153 522.253 48.9936L509.891 41.8502L505.225 43.2693L512.224 70.3517L518.116 93.1528L522.374 91.9743C522.374 91.9743 523.119 95.1491 523.384 96.2074L547.363 89.064L575.528 80.6699L575.288 79.6116L563.406 72.7568L563.598 73.6949Z" fill="#FFA227"/>
<path d="M495.893 68.4275L498.947 82.57L486.633 85.4562C479.874 87.0436 472.683 91.2046 470.662 94.6681C468.209 98.9253 474.198 99.0455 488.918 95.0529L510.829 89.1121L505.922 67.9705C503.228 56.3535 499.188 48.5126 496.927 50.557C494.69 52.6255 494.209 60.6588 495.893 68.4275Z" fill="#388CBA"/>
<path d="M460.104 13.3487L473.476 21.0694L473.717 20.6845L486.031 0.0480652H466.646C466.405 3.1748 464.144 7.0712 460.152 13.3006C460.128 13.3006 460.104 13.3247 460.104 13.3487Z" fill="#FFA227"/>
<path d="M437.711 0.408843L451.253 8.22569H451.277C453.08 5.79646 453.489 2.66972 452.503 0.0480652H437.567C437.543 0.120221 437.495 0.192376 437.471 0.264532L437.711 0.408843Z" fill="#BF2C2F"/>
<path d="M427.225 32.927L456.063 50.1962L473.476 21.0454L460.079 13.3007C450.819 27.6596 449.04 27.9723 434.921 18.8326C423.304 11.3044 421.019 8.70676 425.685 0.0240479H407.719L398.386 15.6096L427.225 32.927Z" fill="#FFA227"/>
<path d="M437.711 0.408898L437.447 0.264587C436.34 3.31917 436.966 6.85479 439.371 9.16377C442.618 12.2665 447.837 12.0259 450.988 8.61058C451.084 8.49032 451.132 8.34601 451.229 8.22575L437.711 0.408898Z" fill="#BF2C2F"/>
<path d="M360.697 80.9344L389.536 98.2037L418.374 115.473L436.268 85.5284L454.163 55.5838L425.325 38.3146L396.487 21.0453L378.592 50.9899L360.697 80.9344ZM417.628 52.3849C431.915 61.6449 432.228 63.3044 422.679 78.1444C413.13 93.0085 411.495 93.3933 397.208 84.1333C382.921 74.8734 382.609 73.2138 392.157 58.3738C401.73 43.5098 403.341 43.1249 417.628 52.3849Z" fill="#BF2C2F"/>
<path d="M738.118 0.0480652H737.999L738.166 0.143636C738.142 0.119744 738.118 0.071958 738.118 0.0480652Z" fill="#20C7AB"/>
<path d="M746.465 4.93062L754.185 9.38022C755.123 7.96116 756.109 6.34968 757.216 4.44959C758.106 2.91027 758.875 1.41905 759.501 0.0240479H750.842C750.072 2.88622 748.509 4.56985 746.465 4.93062Z" fill="#20C7AB"/>
<path d="M689.414 6.56612C674.79 9.06751 674.742 9.21182 687.73 12.4829C697.303 14.8881 700.863 19.8668 700.357 30.2572C699.901 39.926 697.88 43.63 694.272 41.5375C691.29 39.8298 690.28 35.9815 691.987 32.9991C696.918 24.4847 681.429 18.4477 672.866 25.5671C668.633 29.0786 667.238 33.1675 669.788 34.6346C672.337 36.1018 677.364 34.9473 680.972 32.037C684.988 28.8141 685.614 30.4496 682.607 36.2461C679.913 41.4413 672.145 45.8187 665.362 45.963C653.985 46.2036 653.697 46.6124 661.826 51.495C666.661 54.4052 675.368 53.852 681.164 50.2924C695.571 41.4172 696.124 49.6189 681.934 61.5246C675.223 67.1527 666.035 68.6199 659.83 65.0362C648.502 58.4941 635.393 72.2036 646.097 79.3711C651.123 82.7383 650.763 83.3637 644.269 82.5459C632.796 81.0787 622.55 101.378 632.002 106.814C636.307 109.292 641.334 108.762 643.162 105.588C644.99 102.437 643.258 99.9835 639.314 100.176C635.369 100.368 633.638 97.915 635.466 94.7642C637.294 91.6134 641.142 90.3868 644.004 92.0464C651.532 96.3998 659.036 80.9104 653.144 73.1897C650.426 69.606 653.577 69.5339 660.191 73.0454C668.296 77.3267 678.037 75.162 690.232 66.3109L708.295 53.2267L695.86 67.73C689.029 75.7152 677.845 84.1574 671.038 86.5145C664.232 88.8715 654.9 97.3137 650.306 105.275C646 112.707 642.441 115.978 638.087 115.882L663.053 130.289C660.095 123.41 670.533 113.116 684.796 111.312C697.952 109.652 706.707 92.0704 697.11 86.5385C694.537 85.0473 697.616 77.8798 703.917 70.5681L715.39 57.2915L711.301 72.9973C707.741 86.6828 708.776 86.1777 719.262 69.0288C733.862 45.1934 740.019 14.7197 730.158 15.1767C726.213 15.3691 724.65 12.6512 726.67 9.13966C728.811 5.43568 734.03 6.46991 739.153 11.6411C745.455 17.9907 748.581 17.9426 754.234 9.35613L746.513 4.90654C745.094 5.17111 743.434 4.78628 741.606 3.75205C739.899 2.76592 738.84 1.53928 738.263 0.168324L737.999 0.0480652H722.798C722.461 1.05824 721.547 2.16463 720.056 3.39127C715.703 6.99905 716.352 14.0462 721.667 21.0213C726.935 27.9242 727.223 31.0028 722.389 28.6217C715.919 25.4228 715.462 26.7937 720.2 35.4043C727.296 48.2961 724.073 56.3534 714.139 50.605C710.219 48.3442 707.501 36.0777 708.054 23.3543C708.439 14.8881 707.308 6.10913 705.312 0.072117H697.471C703.051 3.55963 701.344 4.54576 689.414 6.56612ZM692.517 97.1454C692.565 100.994 688.211 103.495 682.848 102.725C677.484 101.956 667.743 105.612 661.201 110.879C649.801 120.067 649.56 119.971 655.549 108.907C662.62 95.7985 692.372 86.3461 692.517 97.1454Z" fill="#20C7AB"/>
<path d="M1048.12 5.57999C1048.6 3.94446 1049.4 2.11652 1050.5 0.0480652H1043.51L1042.25 2.18868L1048.12 5.57999Z" fill="#BF2C2F"/>
<path d="M1098.49 7.38388C1108.28 13.0361 1111.45 13.3006 1119.89 0.0480652H1112.05C1108.73 2.86213 1104.69 3.75205 1101.61 1.97221C1100.68 1.41902 1099.83 0.769621 1099.11 0.0480652H1090.19C1091.49 2.59756 1094.21 4.93059 1098.49 7.38388Z" fill="#BF2C2F"/>
<path d="M1100.58 15.8261C1095.39 12.8196 1090.02 16.4274 1084.66 26.5051L1084.61 26.6254L1089.68 29.5597L1100.58 19.4339L1093.89 31.9889L1099.23 35.0676C1104.91 23.2822 1104.93 18.3515 1100.58 15.8261Z" fill="#BF2C2F"/>
<path d="M1057.14 10.7752L1067.92 16.9806C1068.35 16.1869 1067.53 14.0222 1065.58 10.0777C1061.47 1.70768 1062.12 1.05828 1069.96 5.48382C1075.01 8.34599 1077.03 14.3349 1074.46 18.8085C1074.17 19.3136 1073.81 19.7466 1073.43 20.1554L1078.81 23.2581C1079.1 22.7771 1079.39 22.3201 1079.68 21.815C1085.93 10.9676 1084.9 6.75856 1074.44 0.721551C1074 0.481033 1073.57 0.240514 1073.16 0.0240479H1057.62C1057.29 0.408877 1056.95 0.841811 1056.69 1.32285C1055 4.28122 1055.31 7.86495 1057.14 10.7752Z" fill="#BF2C2F"/>
<path d="M976.328 128.461C982.077 118.528 986.935 116.507 994.608 120.933C1002.28 125.358 1007.14 123.362 1012.89 113.404C1019.14 102.557 1023.33 101.355 1033.79 107.392C1043.36 112.923 1045.19 117.83 1040.59 125.767C1037.11 131.804 1030.85 134.594 1026.5 132.093C1022.2 129.615 1020.15 124.973 1021.98 121.823C1023.81 118.672 1026.76 118.936 1028.59 122.448C1030.4 125.96 1033.38 126.224 1035.21 123.073C1037.04 119.923 1034.99 115.305 1030.69 112.803C1026.33 110.278 1020.05 113.092 1016.59 119.129C1012 127.09 1013.8 131.997 1023.4 137.504C1035.59 144.552 1037.49 143.229 1052.12 117.926C1066.72 92.6237 1066.91 90.3147 1054.71 83.2675C1046.58 78.5774 1039.87 78.7939 1036.96 83.8688C1034.39 88.3424 1036.41 94.3314 1041.46 97.1935C1049.33 101.643 1049.95 100.97 1045.84 92.5996C1041.73 84.2296 1042.37 83.5802 1050.22 88.0057C1055.27 90.8679 1057.29 96.8568 1054.71 101.33C1051.8 106.381 1045.09 106.622 1036.96 101.932C1026.52 95.8947 1025.47 91.6857 1031.72 80.8383C1038.33 69.3896 1041.99 68.6921 1055.22 76.3406C1070.9 85.3841 1070.9 85.3841 1089.68 52.8419C1093.87 45.5783 1097.02 39.7818 1099.31 35.0436L1093.97 31.9649L1092.55 34.6106C1085.81 47.2859 1082.28 48.5607 1071.41 42.2832C1061.83 36.7512 1056.66 37.6412 1052.09 45.5783C1047.91 52.8179 1049.3 58.446 1056.28 62.4627C1062.02 65.7818 1068.09 66.1426 1069.77 63.2323C1071.43 60.3461 1068.47 57.3396 1063.16 56.57C1057.86 55.8003 1055.07 52.4571 1056.97 49.162C1058.87 45.8669 1065.15 45.8669 1070.9 49.186C1077.88 53.2027 1079.27 58.8308 1075.09 66.0704C1069.89 75.0658 1065.34 74.8975 1048.29 65.0603C1031.14 55.1509 1026.21 55.0066 1018.44 64.0982C1013.32 70.0871 1014.81 64.4349 1021.74 51.5431C1029.22 37.6171 1036.67 29.4395 1040.11 31.4358C1043.29 33.2637 1042.42 37.6652 1038.19 41.1768C1033.96 44.6883 1032.75 48.8974 1035.54 50.4848C1038.33 52.0963 1043.43 48.5366 1046.87 42.5718C1051.06 35.3322 1049.66 29.704 1042.69 25.6874C1032.85 20.0111 1030.16 23.2582 996.243 82.0168L967.14 132.333L973.009 135.725C973.586 133.656 974.693 131.299 976.328 128.461ZM996.676 95.0289C1001.85 85.0955 1008.25 78.2166 1010.94 79.7559C1013.61 81.2953 1019.98 77.6634 1025.11 71.6745C1033.09 62.3424 1033.28 62.9678 1026.52 76.1001C1022.17 84.5182 1016.42 90.1463 1013.75 88.607C1011.06 87.0677 1004.01 91.9262 998.095 99.4544C988.041 112.154 987.945 111.865 996.676 95.0289ZM1004.83 105.155C1009.13 97.6986 1012.09 95.3415 1011.37 99.8873C1010.67 104.457 1007.14 110.542 1003.55 113.453C999.947 116.339 1000.52 112.611 1004.83 105.155Z" fill="#BF2C2F"/>
<path d="M1056.71 19.4339C1048.99 14.9603 1046.42 11.4968 1048.15 5.58003L1042.28 2.18872L1035.3 14.2868L1053.58 24.8456C1068.9 33.6966 1072.54 33.7207 1078.84 23.3062L1073.45 20.2036C1070.13 23.8594 1064.02 23.643 1056.71 19.4339Z" fill="#BF2C2F"/>
<path d="M1076.55 41.73L1088.58 30.594L1089.68 29.5597L1084.59 26.6254L1076.55 41.73Z" fill="#BF2C2F"/>
<path d="M1061.18 14.6716C1065.32 17.0046 1067.41 17.8946 1067.92 17.0046L1057.14 10.7993C1058.1 12.3145 1059.45 13.6855 1061.18 14.6716Z" fill="#BF2C2F"/>
<path d="M623.945 45.3618C626.807 47.0214 633.397 41.0565 638.568 32.1092C643.739 23.1619 645.615 14.4792 642.729 12.8196C639.867 11.1601 633.277 17.1249 628.106 26.0722C622.935 35.0436 621.059 43.7022 623.945 45.3618Z" fill="#388CBA"/>
<path d="M630.222 70.6884C634.744 62.8715 633.109 58.1333 624.354 53.6837C615.238 49.0417 614.132 49.4506 619.952 55.2952C624.186 59.5524 626.278 65.4691 624.57 68.4035C622.863 71.3378 620 70.8808 618.197 67.3692C616.393 63.8577 613.41 63.5931 611.582 66.7439C609.754 69.8947 611.799 74.5126 616.104 77.014C620.482 79.5154 626.735 76.7254 630.222 70.6884Z" fill="#FFA227"/>
<path d="M649.175 1.65954C647.347 4.81033 649.392 9.42829 653.697 11.9297C658.05 14.4551 664.328 11.6411 667.791 5.60404C668.97 3.55963 669.715 1.70764 670.052 0.0480652H662.716C662.837 1.32281 662.668 2.45325 662.163 3.31912C660.456 6.25344 657.593 5.79646 655.789 2.28489C655.26 1.25066 654.611 0.50505 653.937 0.0480652H650.594C650.065 0.408843 649.584 0.937984 649.175 1.65954Z" fill="#FFA227"/>
<path d="M502.651 5.14706C511.767 9.78906 512.873 9.38018 507.053 3.53558C505.994 2.45325 505.056 1.27471 504.287 0.0480652H495.917C497.264 1.87601 499.476 3.53558 502.651 5.14706Z" fill="#388CBA"/>
<path d="M499.957 18.8807C497.167 17.2692 491.587 21.6948 487.33 28.766L497.72 34.779C501.689 27.5394 502.723 20.4922 499.957 18.8807Z" fill="#20C7AB"/>
<path d="M497.36 35.4524C497.504 35.2119 497.6 34.9954 497.721 34.7549L487.33 28.7419C487.186 28.9584 487.042 29.1748 486.921 29.4154C482.616 36.8714 481.438 44.3275 484.324 45.9871C487.162 47.6467 493.055 42.9084 497.36 35.4524Z" fill="#20C7AB"/>
<path d="M465.082 70.2073C474.198 74.8493 475.304 74.4405 469.484 68.5959C465.251 64.3387 463.158 58.4219 464.866 55.4876C466.573 52.5533 469.436 53.0103 471.24 56.5218C473.043 60.0334 476.026 60.298 477.854 57.1472C479.682 53.9964 477.637 49.3784 473.332 46.877C468.979 44.3516 462.701 47.1657 459.238 53.2027C454.716 61.0195 456.351 65.7818 465.082 70.2073Z" fill="#388CBA"/>
<path d="M1355.82 0.0480652H1339.13L1348.72 5.60404C1350.86 3.67989 1353.29 1.80385 1355.82 0.0480652Z" fill="#FFA227"/>
<path d="M1356.08 9.83717L1374.77 20.6364L1386.68 0.0480652H1371.21C1370.32 0.577206 1369.41 1.08229 1368.42 1.61144C1362.22 4.85843 1358.44 7.14336 1356.08 9.83717Z" fill="#FFA227"/>
<path d="M1322.58 45.6263C1326.19 42.7401 1329.7 36.6309 1330.4 32.0611C1331.09 27.4912 1328.16 29.8724 1323.85 37.3284C1319.55 44.7845 1318.97 48.5366 1322.58 45.6263Z" fill="#20C7AB"/>
<path d="M1337.3 7.14336C1347.52 29.7521 1328.95 62.631 1305.02 64.2906C1298.36 64.7475 1297.28 66.6476 1300.19 72.6365C1310.72 94.187 1291.53 126.729 1266.85 129.158C1265.46 129.303 1264.33 129.543 1263.44 129.904L1273.56 135.749C1283.98 126.465 1300.81 118.022 1304.61 120.235C1307.38 121.823 1302.26 127.018 1293.26 131.756C1287.05 135.003 1283.28 137.312 1280.92 140.006L1299.61 150.805L1374.75 20.6605L1356.06 9.86122C1352.64 13.7817 1352.33 18.592 1352.74 28.7179C1353.15 38.8918 1351.22 45.9149 1348.48 44.3275C1345.74 42.7401 1344.35 33.6485 1345.4 24.124C1346.46 14.5994 1347.76 6.39775 1348.31 5.91672C1348.43 5.79646 1348.58 5.70025 1348.7 5.57999L1339.13 0.0480652H1337.97C1335.78 1.25066 1335.64 3.46343 1337.3 7.14336ZM1344.78 49.4025C1349.4 52.0722 1335.83 65.0362 1322.39 70.8086C1316.61 73.2859 1313.82 78.1204 1314.57 84.3738C1316.35 99.4303 1311.76 117.084 1306.83 114.246C1304.37 112.827 1303.65 106.718 1305.21 100.657C1306.78 94.5959 1308.99 85.3119 1310.12 79.9964C1312.48 69.0047 1338.67 45.8668 1344.78 49.4025Z" fill="#FFA227"/>
<path d="M359.302 7.28767C362.164 8.94725 365.941 7.86492 367.648 4.88249C368.538 3.34317 368.707 1.61144 368.298 0.0480652H356.681C355.767 2.78998 356.801 5.84456 359.302 7.28767Z" fill="#20C7AB"/>
<path d="M368.201 34.1296C366.446 25.1582 362.213 16.2109 358.797 14.2387C355.382 12.2664 345.497 13.0842 336.862 16.0426C321.685 21.2378 321.252 22.0074 324.331 37.7373C326.087 46.7087 330.32 55.656 333.735 57.6282C337.151 59.6005 347.036 58.7827 355.671 55.8243C370.847 50.6291 371.28 49.8595 368.201 34.1296ZM348.888 37.4247C354.732 27.2988 356.969 26.6494 358.917 34.5384C360.866 42.4034 359.206 45.3137 351.413 47.5505C343.596 49.8114 343.043 47.5505 348.888 37.4247Z" fill="#388CBA"/>
<path d="M1154.74 60.0575C1138.34 50.6051 1130.93 47.9353 1126.56 50.8696L1180.6 82.0649C1180.29 77.9761 1168.79 68.1389 1154.74 60.0575Z" fill="#20C7AB"/>
<path d="M1205.61 17.1009C1212.76 21.2378 1218.29 21.2618 1218.24 17.149C1218.19 13.9501 1210.74 6.90288 1200.47 0.0240479H1165.23C1167.54 1.20259 1170.64 2.38113 1174.61 3.70398C1184.67 7.04719 1198.62 13.0602 1205.61 17.1009Z" fill="#20C7AB"/>
<path d="M1188.68 86.7309L1195.71 90.7716C1212.85 61.4524 1230.56 30.5699 1248.11 0.0480652H1238.59C1236.52 3.63179 1234.43 7.21552 1232.34 10.8473C1217.14 37.1841 1202.44 62.655 1188.68 86.7309Z" fill="#388CBA"/>
<path d="M1195.58 62.4627C1197.17 59.6967 1195.01 53.9483 1190.77 49.6671C1170.59 29.3673 1142.94 20.9011 1136.01 32.927C1132.28 39.3969 1135.84 42.8123 1152.8 49.0898C1164.63 53.4673 1178.46 59.384 1183.51 62.2703C1188.54 65.1324 1193.97 65.2286 1195.58 62.4627Z" fill="#FFA227"/>
<path d="M1208.89 30.5458C1207.13 23.4986 1171.85 10.1739 1155.9 10.5106C1148.92 10.6549 1155.54 16.7401 1175.26 28.2609C1203.28 44.6642 1212.54 45.2896 1208.89 30.5458Z" fill="#BF2C2F"/>
<path d="M1115.3 44.3516C1123.62 30.0888 1132.21 15.2729 1141.04 0.0480652H1130.69C1122.92 13.5412 1115.25 26.914 1107.77 39.9982L1115.3 44.3516Z" fill="#388CBA"/>
<path d="M1032.61 170.143L1040.14 174.496C1053.92 150.853 1068.47 125.743 1083.53 99.6468C1094.47 80.6939 1105.05 62.1981 1115.3 44.3275L1107.77 39.9742C1082.83 82.9548 1056.73 127.956 1032.61 170.143Z" fill="#388CBA"/>
<path d="M1012.69 29.2711C1012.65 24.9177 1010.51 20.1555 1007.98 18.6883C999.899 14.0222 989.461 23.4265 991.866 33.1675C994.776 44.8086 1012.86 41.4173 1012.69 29.2711Z" fill="#FFA227"/>
<path d="M1012.53 4.71412C1012.98 4.30524 1017.05 2.35704 1022.24 0.0480652H1011.66C1011.9 3.15075 1012.21 5.00275 1012.53 4.71412Z" fill="#388CBA"/>
<path d="M988.451 63.4488C999.587 58.5903 999.466 57.1472 987.176 50.0519C974.837 42.9326 973.466 43.582 973.683 56.4016C973.827 64.2665 974.404 70.2795 974.957 69.7985C975.511 69.2934 981.596 66.4553 988.451 63.4488Z" fill="#388CBA"/>
<path d="M144.134 4.25714L156.954 11.6651C160.73 5.123 162.318 1.61144 161.38 0.0480652H151.639C147.814 0.962035 145.457 2.23678 144.134 4.25714Z" fill="#20C7AB"/>
<path d="M113.3 8.05733C120.251 30.4496 116.547 36.8474 93.6737 42.0426C93.0243 42.1869 92.423 42.3312 91.7255 42.4755C71.8586 46.7327 67.7939 53.9483 75.4664 73.5265C75.8993 74.6328 76.3563 75.7873 76.8855 76.9899C79.8438 83.8928 80.3008 92.9123 77.9197 97.0492C75.5386 101.186 67.4812 105.299 60.0251 106.189C58.7263 106.333 57.5237 106.526 56.3211 106.694C45.7143 108.305 39.4367 110.951 36.6467 115.713L44.5838 120.307C46.1953 118.359 48.4802 116.627 51.4386 115.136C55.4312 113.116 60.6264 111.456 67.1926 110.037C88.2139 105.539 91.5571 97.7707 82.0326 75.5228C80.6616 72.2998 79.7476 69.3895 79.3628 66.7438C78.2324 59.2397 81.2629 53.9483 89.0076 50.0519C93.0002 48.0315 98.1954 46.3719 104.762 44.9529C125.783 40.4552 129.126 32.6864 119.602 10.4385C118.231 7.21552 117.317 4.30524 116.932 1.65954C116.908 1.1304 116.836 0.577206 116.812 0.0480652H111.015C111.448 1.94816 112.001 3.96852 112.723 6.15723C112.939 6.83069 113.108 7.43198 113.3 8.05733Z" fill="#20C7AB"/>
<path d="M73.037 17.7743C63.0315 22.0315 63.296 22.3441 75.1536 20.444C82.5375 19.2655 88.9594 17.654 89.3923 16.9084C89.8252 16.1388 87.9492 9.90932 85.1832 3.05455C84.7503 1.94816 84.3414 0.937983 83.9806 0.0480652H81.9843C82.0805 0.577206 82.1767 1.15445 82.297 1.7798C83.9325 10.6068 82.0084 13.9741 73.037 17.7743Z" fill="#BF2C2F"/>
<path d="M10.2858 38.8197C-10.7114 43.3174 -14.0787 51.0861 -4.55417 73.3341C-1.74011 79.9002 -1.21097 88.3184 -3.20727 92.6958L3.98423 96.8568C5.86027 92.3591 5.16277 86.2259 2.39681 77.6634C-5.58841 53.0343 -1.95657 46.7568 23.37 41.3451C44.3913 36.8474 47.7345 29.0787 38.21 6.83071C37.1998 4.47363 36.4783 2.21276 36.0453 0.0721436H30.5375C30.778 0.865855 31.0185 1.68362 31.2831 2.52543C39.2202 27.1545 35.6124 33.408 10.2858 38.8197Z" fill="#FFA227"/>
<path d="M55.3589 39.8298L29.864 47.5986L4.36902 55.3673L11.0795 80.1407L17.7659 104.818L24.0675 108.45L47.6383 101.258L62.0213 96.8808L73.1332 93.4895L70.1989 82.6902L66.4228 68.7401L59.7123 43.9667L85.2073 36.198L99.5903 31.8206L110.702 28.4292L107.768 17.63L103.992 3.67989L103.03 0.0480652H94.2508C94.6356 1.46712 94.9964 3.00644 95.3572 4.69007L99.47 23.7391L80.2285 28.6457C63.729 32.8307 60.7465 31.9168 59.2553 22.1036C58.0046 13.926 59.7604 10.5587 65.3645 10.2942C70.8483 10.0055 72.7003 6.99905 71.7142 0.0480652H44.5837L48.6485 15.0805L55.3589 39.8298ZM57.7882 69.7503L61.901 88.7994L42.6596 93.7059C26.16 97.891 23.1776 96.977 21.6863 87.1638C20.4356 78.9862 22.1914 75.619 27.7955 75.3544C33.3515 75.0898 35.2035 72.0112 34.1212 64.8437C33.0148 57.556 35.5643 54.1407 43.1406 52.6976C51.222 51.1582 54.6374 55.1268 57.7882 69.7503Z" fill="#388CBA"/>
<path d="M129.775 16.0185C133.263 26.8178 134.538 38.4349 132.565 41.8502C130.593 45.2415 119.914 49.9797 108.802 52.3368C87.805 56.8345 84.4377 64.6033 93.9622 86.8512C96.9206 93.7541 97.3776 102.774 94.9965 106.91C92.6153 111.047 84.558 115.16 77.1019 116.05C64.2342 117.589 56.8262 120.283 53.7476 125.575L61.0112 129.76C63.9696 125.599 72.027 121.991 79.5552 121.606C87.4442 121.197 96.7523 115.93 100.24 109.917C103.727 103.904 103.607 93.2009 100.023 86.1537C96.4155 79.1065 95.5737 69.7263 98.1232 65.3008C100.673 60.8752 109.235 56.9307 117.124 56.5218C125.013 56.113 134.321 50.8456 137.809 44.8326C141.296 38.8197 141.176 28.1166 137.592 21.0694C133.985 14.0222 133.143 4.64201 135.692 0.216467C135.74 0.144311 135.788 0.0721555 135.837 0H127.346C126.745 4.13692 127.635 9.33212 129.775 16.0185Z" fill="#FFA227"/>
<path d="M143.172 12.7715C144.086 18.7364 145.698 24.124 146.804 24.7493C147.887 25.3747 152.48 19.482 156.978 11.6651L144.134 4.25717C142.836 6.25347 142.595 8.94728 143.172 12.7715Z" fill="#388CBA"/>
<path d="M-38.0822 25.4229C-23.0739 35.9095 -15.2089 36.9918 3.76801 31.0751L27.1224 23.8114L20.6765 0.0481873H11.8013L16.756 17.6541L-1.90823 23.6671C-22.3764 30.2573 -36.2062 25.2786 -40.0064 9.9335C-40.1747 9.26004 -40.4152 8.7309 -40.6317 8.17771L-35.9416 0.0481873H-48.0397V20.9973L-47.4143 19.915C-44.5041 21.3341 -41.3292 23.138 -38.0822 25.4229Z" fill="#BF2C2F"/>
<path d="M-11.3127 12.4348C-0.826138 9.40423 0.953699 7.91302 -1.45148 0.0480652H-28.2212C-28.0288 0.986087 -27.7883 1.99626 -27.4996 3.0786C-24.5894 14.8881 -23.026 15.802 -11.3127 12.4348Z" fill="#388CBA"/>
<path d="M783.168 19.0731C783.024 11.2082 782.446 5.19519 781.893 5.67623C781.34 6.15726 775.279 9.01943 768.4 12.0259C766.163 12.988 764.528 13.8058 763.205 14.5754L782.927 25.9519C783.144 24.2683 783.216 22.0315 783.168 19.0731Z" fill="#BF2C2F"/>
<path d="M764.961 42.3312C762.074 30.6901 743.987 34.0574 744.132 46.2276C744.18 50.581 746.32 55.3433 748.846 56.8104C756.927 61.4524 767.39 52.0722 764.961 42.3312Z" fill="#388CBA"/>
<path d="M782.927 26.0001L763.205 14.6235C757.938 17.7022 759.862 19.7706 769.675 25.4469C779.151 30.9066 782.134 31.7244 782.927 26.0001Z" fill="#BF2C2F"/>
</svg>
