<svg width="721" height="721" viewBox="0 0 721 721" fill="none" xmlns="http://www.w3.org/2000/svg">
<mask id="mask0" mask-type="alpha" maskUnits="userSpaceOnUse" x="0" y="0" width="721" height="721">
<circle cx="360.5" cy="360.5" r="360.5" fill="black"/>
</mask>
<g mask="url(#mask0)">
<path d="M645.538 316.072L677.878 314.004L662.047 339.365H648.737C649.221 338.719 649.641 338.073 649.997 337.427C657.589 324.181 656.297 323.309 636.912 328.639C629.87 330.578 622.245 334.648 616.268 339.333H599.986C612.973 319.303 617.464 317.881 645.538 316.072Z" fill="#BF2C2F"/>
<path d="M600.212 228.359L543.965 260.827L528.684 285.316L561.023 283.248C591.683 281.277 594.235 279.759 610.388 253.881L627.414 226.582L600.212 228.359ZM599.566 250.037C594.913 258.113 581.441 267.386 569.617 270.649C550.265 275.979 548.941 275.107 556.533 261.861C561.185 253.784 574.657 244.512 586.481 241.249C605.865 235.919 607.158 236.791 599.566 250.037Z" fill="#20C7AB"/>
<path d="M476.315 299.886L499.123 339.365H537.084C538.57 334.842 535.565 334.519 526.196 335.908C523.418 336.296 520.478 337.524 517.603 338.978L512.24 329.673C517.894 327.25 524.839 326.249 535.501 325.538L563.931 323.632L552.171 339.365H565.094L582.992 312.034L541.478 313.617L503.775 315.071L499.802 308.157C511.367 307.543 545.968 305.734 545.968 305.734L596.399 303.085L573.461 339.365H587.16L607.481 308.124L653.583 304.829L699.685 301.534L675.099 339.333H688.668L713.512 300.048L717.68 307.285L697.52 339.333H711.38C717.098 330.933 721.395 325.796 726.402 322.372L731.862 331.805C728.761 334.002 725.982 336.587 724.141 339.301H754.929L668.185 189.073L654.164 197.182L657.879 203.612L641.564 204.484L621.405 216.114L649.286 214.111L624.216 252.621L599.145 291.131L553.043 294.426L506.941 297.722L523.127 272.845L502.16 284.96L493.954 297.915L490.4 291.745L476.315 299.886ZM643.729 277.562L659.592 253.881C665.988 244.351 670.544 238.665 675.907 235.014L681.367 244.448C677.781 246.967 674.679 250.004 672.87 253.17C666.667 263.993 667.604 265.285 680.397 263.412C683.563 262.959 686.956 261.538 690.186 259.696L695.129 268.225C688.991 271.359 681.787 273.039 671.416 274.267L643.729 277.562ZM610.162 296.236L637.074 253.687L663.016 212.658L667.184 219.894L646.281 253.106L624.151 288.256L665.213 285.93L704.014 283.733L708.246 291.034L660.561 293.554L610.162 296.236Z" fill="#FFA227"/>
<path d="M559.925 166.491L576.951 139.192L544.611 141.259C513.952 143.23 511.4 144.748 495.246 170.626L478.221 197.926L510.56 195.858C541.251 193.855 543.771 192.369 559.925 166.491ZM549.102 162.614C544.45 170.691 530.978 179.963 519.153 183.226C499.802 188.557 498.477 187.684 506.069 174.438C510.721 166.362 524.193 157.09 536.018 153.827C555.402 148.528 556.694 149.401 549.102 162.614Z" fill="#BF2C2F"/>
<path d="M499.285 53.5136L443.038 85.982L427.757 110.471L460.097 108.403C490.756 106.432 493.308 104.914 509.462 79.0361L526.487 51.7367L499.285 53.5136ZM498.639 75.2238C493.987 83.3006 480.515 92.5727 468.69 95.8357C449.338 101.166 448.014 100.294 455.606 87.0482C460.258 78.9714 473.73 69.6993 485.554 66.4363C504.906 61.1057 506.231 61.978 498.639 75.2238Z" fill="#20C7AB"/>
<path d="M595.075 228.682L600.212 228.359L543.965 260.827L545.71 258.049C561.863 232.139 564.416 230.653 595.075 228.682Z" fill="#20C7AB"/>
<path d="M654.1 197.247L668.121 189.138L567.194 14.3253L553.173 22.4344L556.888 28.8635L540.573 29.7358L520.414 41.3662L548.294 39.3955L523.224 77.9053L498.154 116.415L452.052 119.711L405.95 123.006L422.136 98.1295L401.169 110.245L392.963 123.2L389.409 117.029L375.388 125.138L476.315 299.951L490.336 291.842L489.496 290.356L509.978 259.115L532.529 224.708L491.014 226.291L453.312 227.745L449.338 220.831C460.904 220.217 495.505 218.408 495.505 218.408L545.936 215.759L519.024 258.307L502.095 285.09L523.063 272.975L531.947 259.341L557.017 220.831L603.119 217.536L621.308 216.244L641.468 204.613L610.13 206.261L559.699 208.91L586.61 166.362L612.553 125.332L616.72 132.569L595.818 165.78L573.688 200.93L614.75 198.604L653.55 196.407L654.1 197.247ZM513.468 236.209L496.797 258.533C490.95 266.352 486.136 271.585 480.838 275.301L475.862 266.675C478.964 264.316 481.613 261.57 483.261 258.727C489.496 247.904 488.527 246.612 475.733 248.486C472.955 248.874 470.015 250.101 467.139 251.555L461.776 242.251C467.43 239.828 474.376 238.826 485.037 238.115L513.468 236.209ZM462.972 148.819L446.301 171.143C440.454 178.961 435.64 184.195 430.342 187.91L425.367 179.284C428.468 176.926 431.117 174.18 432.765 171.337C439 160.514 438.031 159.222 425.237 161.096C422.459 161.483 419.519 162.711 416.644 164.165L411.281 154.86C416.934 152.437 423.88 151.436 434.542 150.725L462.972 148.819ZM495.473 128.272L468.561 170.82L443.426 210.558L439 202.901L459.483 171.66L482.033 137.253L440.518 138.836L402.816 140.29L398.843 133.376C410.408 132.763 445.009 130.953 445.009 130.953L495.473 128.272ZM598.758 126.753L573.688 165.263L548.617 203.773L502.515 207.068L456.414 210.364L481.484 171.854L506.554 133.344L552.656 130.049L598.758 126.753ZM542.802 102.717L558.665 79.0361C565.062 69.5056 569.617 63.8196 574.98 60.1689L580.44 69.6025C576.854 72.1224 573.752 75.1593 571.943 78.3253C565.74 89.1482 566.677 90.4404 579.471 88.5666C582.637 88.1143 586.029 86.6929 589.26 84.8514L594.203 93.3804C588.064 96.5142 580.86 98.1941 570.489 99.4218L542.802 102.717ZM509.235 121.423L536.147 78.8746L562.089 37.8448L566.257 45.0815L545.354 78.2931L523.224 113.443L564.286 111.117L603.087 108.92L607.319 116.221L559.634 118.741L509.235 121.423ZM593.266 190.14L609.128 166.459C615.525 156.928 620.08 151.242 625.443 147.591L630.903 157.025C627.317 159.545 624.216 162.582 622.407 165.748C616.204 176.571 617.14 177.863 629.934 175.989C633.1 175.537 636.492 174.115 639.723 172.274L644.666 180.803C638.528 183.937 631.323 185.617 620.953 186.844L593.266 190.14Z" fill="#FFA227"/>
<path d="M458.998 -8.35413L476.024 -35.6535L443.685 -33.5858C413.025 -31.6151 410.473 -30.0967 394.32 -4.21885L377.294 23.0805L409.633 21.0129C440.292 19.0421 442.845 17.5237 458.998 -8.35413ZM448.175 -12.1987C443.523 -4.12193 430.051 5.15018 418.227 8.41318C398.875 13.7438 397.55 12.8715 405.142 -0.374313C409.795 -8.45104 423.267 -17.7231 435.091 -20.9861C454.443 -26.2845 455.767 -25.4122 448.175 -12.1987Z" fill="#BF2C2F"/>
<path d="M494.148 53.869L499.285 53.5459L443.038 86.0144L444.783 83.236C460.936 57.3258 463.489 55.8074 494.148 53.869Z" fill="#20C7AB"/>
<path d="M553.173 22.4021L567.194 14.293L466.267 -160.52L452.246 -152.411L455.961 -145.982L439.646 -145.109L419.487 -133.479L447.367 -135.45L422.297 -96.9397L397.227 -58.4299L351.125 -55.1346L305.023 -51.8392L321.209 -76.7156L300.242 -64.6005L292.036 -51.6454L288.482 -57.816L274.461 -49.707L375.388 125.106L389.409 116.997L388.569 115.511L409.051 84.2698L431.602 49.863L390.087 51.446L352.385 52.8998L348.411 45.9861C359.977 45.3723 394.578 43.5631 394.578 43.5631L445.009 40.9139L418.097 83.4622L401.169 110.245L422.136 98.1295L431.02 84.496L456.09 45.9861L502.192 42.6908L520.381 41.3985L540.541 29.7681L509.203 31.4157L458.772 34.0649L485.684 -8.48335L511.626 -49.5132L515.794 -42.2764L494.891 -9.0649L472.761 26.0851L513.823 23.759L552.624 21.5621L553.173 22.4021ZM412.508 61.3965L395.838 83.7206C389.99 91.5389 385.177 96.7726 379.878 100.488L374.903 91.862C378.005 89.5036 380.654 86.7575 382.301 83.9144C388.537 73.0916 387.567 71.7993 374.774 73.6732C371.995 74.0608 369.056 75.2885 366.18 76.7423L360.817 67.4379C366.471 65.0149 373.417 64.0134 384.078 63.3027L412.508 61.3965ZM362.045 -25.9937L345.375 -3.66965C339.527 4.14864 334.713 9.38235 329.415 13.0977L324.44 4.47171C327.541 2.11331 330.19 -0.632797 331.838 -3.47581C338.073 -14.2986 337.104 -15.5909 324.31 -13.7171C321.532 -13.3294 318.592 -12.1017 315.717 -10.6479L310.354 -19.9523C316.007 -22.3753 322.954 -23.3768 333.615 -24.0876L362.045 -25.9937ZM394.546 -46.5409L367.634 -3.99269L342.499 35.7448L338.073 28.0881L358.556 -3.15273L381.106 -37.5596L339.592 -35.9766L301.889 -34.5228L297.916 -41.4365C309.482 -42.0503 344.082 -43.8595 344.082 -43.8595L394.546 -46.5409ZM497.831 -48.0593L472.761 -9.54948L447.691 28.9604L401.589 32.2557L355.487 35.551L380.557 -2.95889L405.627 -41.4687L451.729 -44.7641L497.831 -48.0593ZM441.875 -72.0957L457.738 -95.7767C464.135 -105.307 468.69 -110.993 474.053 -114.644L479.513 -105.21C475.927 -102.69 472.825 -99.6535 471.016 -96.4874C464.813 -85.6646 465.75 -84.3724 478.544 -86.2462C481.71 -86.6984 485.102 -88.1199 488.333 -89.9614L493.276 -81.4324C487.137 -78.2986 479.933 -76.6187 469.562 -75.391L441.875 -72.0957ZM408.308 -53.39L435.22 -95.9382L461.163 -136.968L465.33 -129.731L444.428 -96.5197L422.297 -61.3698L463.359 -63.6959L502.16 -65.8928L506.392 -58.5914L458.707 -56.0715L408.308 -53.39ZM492.339 15.3268L508.201 -8.35414C514.598 -17.8847 519.153 -23.5707 524.516 -27.2214L529.976 -17.7878C526.39 -15.2678 523.289 -12.231 521.48 -9.0649C515.277 1.75792 516.214 3.0502 529.007 1.17639C532.173 0.724091 535.565 -0.697388 538.796 -2.53888L543.739 5.99014C537.601 9.12392 530.396 10.8039 520.026 12.0315L492.339 15.3268Z" fill="#FFA227"/>
<path d="M189.978 313.746L158.544 304.7L166.103 272.587L173.373 241.702L189.332 232.494L182.063 263.283L174.471 295.493L206.003 304.571L237.534 313.649L231.428 339.365H217.665L221.413 322.792L189.978 313.746Z" fill="#FFA227"/>
<path d="M185.164 321.597C206.261 327.67 209.75 328.93 208.296 339.398H192.143C189.493 336.878 184.421 334.422 179.608 333.518C173.534 332.355 170.142 333.809 167.88 339.398H154.021L159.836 314.328L185.164 321.597Z" fill="#FFA227"/>
<path d="M136.284 263.089C133.538 269.227 130.017 270.358 127.594 268.096L136.284 263.089Z" fill="#FFA227"/>
<path d="M125.623 276.722C136.672 280.502 141.033 279.21 143.747 271.391C145.298 266.933 145.75 261.635 145.007 258.049L160.062 249.358C161.483 253.3 159.997 259.729 156.831 272.522L150.499 298.109L122.877 289.677L101.522 283.151L118.128 273.556C119.937 274.687 122.392 275.624 125.623 276.722Z" fill="#FFA227"/>
<path d="M202.578 262.701L198.475 281.698L215.016 285.574C224.095 287.707 233.754 293.296 236.468 297.948C239.763 303.666 231.719 303.828 211.947 298.465L182.516 290.485L189.106 262.087C192.724 246.483 198.152 235.951 201.189 238.697C204.161 241.475 204.807 252.266 202.578 262.701Z" fill="#388CBA"/>
<path d="M208.749 274.558C208.07 273.395 209.039 269.518 210.881 265.964C212.722 262.41 216.535 263.509 219.378 268.419C222.221 273.33 221.251 277.207 217.245 277.013C213.239 276.819 209.427 275.721 208.749 274.558Z" fill="#20C7AB"/>
<path d="M251.555 326.055C253.526 327.864 254.495 333.066 254.302 339.365H242.283C245.514 329.609 249.229 323.955 251.555 326.055Z" fill="#388CBA"/>
<path d="M137.318 316.007L120.777 312.131C111.699 309.998 102.039 304.409 99.325 299.757C96.0297 294.039 104.074 293.877 123.846 299.24L153.278 307.22L146.687 335.618C146.396 336.91 146.073 338.17 145.75 339.365H132.407C132.601 337.911 132.86 336.458 133.183 335.004L137.318 316.007Z" fill="#388CBA"/>
<path d="M127.012 323.147C127.69 324.31 126.721 328.187 124.88 331.741C123.038 335.295 119.226 334.196 116.383 329.286C113.54 324.375 114.509 320.498 118.515 320.692C122.521 320.886 126.366 321.984 127.012 323.147Z" fill="#BF2C2F"/>
<path d="M173.663 240.474L148.722 232.72L123.781 224.967L117.449 248.389C112.926 265.124 112.183 270.132 118.128 273.653L101.522 283.248L95.2543 281.342L104.656 244.965L112.571 214.338L118.289 215.921C118.289 215.921 119.291 211.656 119.646 210.235L151.856 219.83L189.687 231.105L189.364 232.526L173.405 241.734L173.663 240.474Z" fill="#FFA227"/>
<path d="M144.167 255.561C142.293 252.331 139.418 254.527 137.221 260.827C136.93 261.667 136.607 262.378 136.316 263.089L127.626 268.096C124.88 265.576 123.491 258.857 126.043 250.36C130.146 236.726 131.567 236.113 146.848 241.346C154.699 244.028 158.737 245.578 160.127 249.358L145.072 258.049C144.813 257.08 144.555 256.207 144.167 255.561Z" fill="#FFA227"/>
<path d="M112.539 214.273L82.0731 205.809L45.8571 195.761L52.383 167.622L58.909 139.482L84.2377 146.784C109.049 153.924 109.502 154.408 106.239 171.079C103.137 186.909 101.877 187.846 88.0176 184.583C70.798 180.544 67.535 166.426 84.5607 169.657C91.1514 170.917 94.479 169.495 92.6052 166.265C90.8606 163.228 84.593 159.836 78.6809 158.705C70.5395 157.154 67.2442 160.288 64.9827 171.757C62.2044 185.875 63.5289 187.232 85.4653 193.047L108.92 199.25L114.703 173.631L120.486 148.011L89.0514 138.965L57.6168 129.92L65.1766 97.8064L72.4456 66.921L88.4053 57.7135L81.1685 88.502L73.5764 120.712L105.108 129.79L136.639 138.869L127.464 177.378C127.464 177.378 121.617 201.964 119.646 210.202C119.291 211.624 118.289 215.888 118.289 215.888L112.539 214.273Z" fill="#FFA227"/>
<path d="M35.3573 88.2759C32.6112 94.4142 29.0897 95.5449 26.6667 93.2835L35.3573 88.2759Z" fill="#FFA227"/>
<path d="M24.696 101.909C35.7449 105.689 40.1064 104.397 42.8201 96.5787C44.3709 92.1204 44.8232 86.8221 44.0801 83.236L59.1352 74.5454C60.5567 78.4869 59.0705 84.9159 55.9045 97.7095L49.5723 123.297L21.9499 114.864L0.594971 108.338L17.2007 98.7433C19.0099 99.874 21.4653 100.811 24.696 101.909Z" fill="#FFA227"/>
<path d="M101.619 87.8882L97.5158 106.885L114.057 110.761C123.135 112.894 132.795 118.483 135.509 123.135C138.804 128.853 130.76 129.015 110.988 123.652L81.5562 115.672L88.1469 87.2744C91.7652 71.6701 97.1928 61.1381 100.23 63.8842C103.234 66.6625 103.88 77.4531 101.619 87.8882Z" fill="#388CBA"/>
<path d="M107.822 99.7449C107.143 98.5818 108.113 94.705 109.954 91.1512C111.796 87.5975 115.608 88.6959 118.451 93.6065C121.294 98.5172 120.325 102.394 116.318 102.2C112.312 102.006 108.5 100.908 107.822 99.7449Z" fill="#20C7AB"/>
<path d="M152.05 175.214L147.947 194.21L164.488 198.087C173.566 200.219 183.226 205.809 185.94 210.461C189.235 216.179 181.191 216.341 161.419 210.978L131.987 202.998L138.578 174.6C142.196 158.996 147.624 148.464 150.661 151.21C153.665 153.988 154.311 164.779 152.05 175.214Z" fill="#388CBA"/>
<path d="M158.253 187.07C157.574 185.907 158.544 182.03 160.385 178.477C162.227 174.923 166.039 176.021 168.882 180.932C171.725 185.843 170.756 189.72 166.75 189.526C162.744 189.332 158.931 188.233 158.253 187.07Z" fill="#20C7AB"/>
<path d="M82.7191 247.517L86.8221 228.52L70.281 224.644C61.2028 222.511 51.543 216.922 48.8292 212.27C45.5339 206.552 53.5783 206.39 73.3502 211.753L102.782 219.733L96.1912 248.131C92.5728 263.735 87.1452 274.267 84.1084 271.521C81.1038 268.743 80.4577 257.952 82.7191 247.517Z" fill="#388CBA"/>
<path d="M76.5162 235.66C77.1947 236.823 76.2255 240.7 74.384 244.254C72.5425 247.808 68.7303 246.709 65.8873 241.798C63.0443 236.888 64.0135 233.011 68.0196 233.205C72.0256 233.399 75.8378 234.497 76.5162 235.66Z" fill="#BF2C2F"/>
<path d="M32.2882 160.191L36.3912 141.195L19.8501 137.318C10.7718 135.186 1.11208 129.596 -1.6017 124.944C-4.89701 119.226 3.1474 119.064 22.9192 124.427L52.3509 132.407L45.7603 160.805C42.1419 176.409 36.7143 186.941 33.6775 184.195C30.6729 181.417 30.0267 170.626 32.2882 160.191Z" fill="#388CBA"/>
<path d="M26.0852 148.335C26.7637 149.498 25.7945 153.374 23.953 156.928C22.1115 160.482 18.2993 159.384 15.4563 154.473C12.6132 149.562 13.5825 145.685 17.5885 145.879C21.5946 146.073 25.4068 147.172 26.0852 148.335Z" fill="#BF2C2F"/>
<path d="M72.7364 65.6287L47.7954 57.875L22.8545 50.1214L16.5223 73.5439C11.9994 90.2789 11.2563 95.2865 17.2008 98.8079L0.595006 108.403L-5.67255 106.497L3.72878 70.1194L11.644 39.4924L17.3623 41.0755C17.3623 41.0755 18.3638 36.811 18.7192 35.3895L50.9292 44.9846L88.7606 56.2597L88.4376 57.6812L72.4779 66.8887L72.7364 65.6287Z" fill="#FFA227"/>
<path d="M43.2402 80.7484C41.3664 77.5177 38.4911 79.7146 36.2942 86.0145C36.0035 86.8545 35.6804 87.5652 35.3896 88.276L26.6991 93.2835C23.953 90.7636 22.5638 84.0437 25.1161 75.547C29.219 61.9135 30.6405 61.2997 45.9217 66.5334C53.7723 69.2149 57.8106 70.7656 59.1998 74.5455L44.1448 83.2361C43.8864 82.2669 43.6279 81.3946 43.2402 80.7484Z" fill="#FFA227"/>
<path d="M11.6116 39.4601L-18.8538 30.9957L-55.0699 20.9482L-48.5439 -7.19112L-42.0179 -35.3305L-16.6892 -28.0291C8.12248 -20.8892 8.57477 -20.4046 5.31177 -3.73425C2.21031 12.0961 0.95034 13.033 -12.9093 9.77002C-30.1289 5.73165 -33.392 -8.38646 -16.3662 -5.15577C-9.77559 -3.8958 -6.44795 -5.31731 -8.32175 -8.548C-10.0663 -11.5849 -16.3339 -14.9771 -22.246 -16.1078C-30.3874 -17.6585 -33.6827 -14.5248 -35.9442 -3.05584C-38.7226 11.0623 -37.398 12.4192 -15.4616 18.2344L7.99325 24.4373L13.7762 -1.18203L19.5591 -26.8014L-11.8755 -35.8474L-43.3102 -44.8933L-35.7504 -77.0064L-28.4813 -107.892L-12.5217 -117.099L-19.7584 -86.3108L-27.3505 -54.1008L4.18101 -45.0226L35.7126 -35.9443L26.5374 2.56559C26.5374 2.56559 20.6898 27.1512 18.7191 35.3894C18.3638 36.8109 17.3622 41.0754 17.3622 41.0754L11.6116 39.4601Z" fill="#FFA227"/>
<path d="M51.123 0.401104L47.0201 19.3975L63.5612 23.2744C72.6394 25.4067 82.2992 30.9957 85.013 35.6479C88.3083 41.3663 80.2639 41.5278 60.492 36.1649L31.0604 28.185L37.651 -0.212736C41.2694 -15.817 46.697 -26.3491 49.7338 -23.603C52.7384 -20.8246 53.3522 -10.034 51.123 0.401104Z" fill="#388CBA"/>
<path d="M57.3261 12.2576C56.6476 11.0946 57.6169 7.21772 59.4584 3.66396C61.2998 0.110196 65.1121 1.20861 67.9551 6.11927C70.7981 11.0299 69.8289 14.9068 65.8228 14.7129C61.8168 14.5191 57.9722 13.4207 57.3261 12.2576Z" fill="#20C7AB"/>
<path d="M-18.2398 72.704L-14.1368 53.7075L-30.678 49.8307C-39.7562 47.6984 -49.416 42.1093 -52.1298 37.4571C-55.4251 31.7388 -47.3807 31.5773 -27.6088 36.9402L1.82278 44.92L-4.76781 73.3178C-8.38618 88.9221 -13.8138 99.4541 -16.8506 96.708C-19.8229 93.9296 -20.469 83.1391 -18.2398 72.704Z" fill="#388CBA"/>
<path d="M34.6466 321.532L52.6092 311.161L52.9323 311.678L69.4735 339.365H43.4341C43.111 335.165 40.0741 329.932 34.7112 321.564C34.6789 321.564 34.6466 321.532 34.6466 321.532Z" fill="#FFA227"/>
<path d="M4.56876 338.881L22.7575 328.381H22.7899C25.2129 331.644 25.7621 335.844 24.4375 339.365H4.37487C4.34257 339.268 4.27797 339.171 4.24567 339.075L4.56876 338.881Z" fill="#BF2C2F"/>
<path d="M-9.51715 295.202L29.2188 272.005L52.6091 311.161L34.6141 321.564C22.1759 302.277 19.7852 301.857 0.82106 314.134C-14.7832 324.246 -17.8523 327.735 -11.5848 339.398H-35.7181L-48.2532 318.463L-9.51715 295.202Z" fill="#FFA227"/>
<path d="M4.56887 338.881L4.21349 339.075C2.72738 334.972 3.56732 330.223 6.79801 327.121C11.1594 322.954 18.1701 323.277 22.4023 327.864C22.5315 328.026 22.5961 328.22 22.7253 328.381L4.56887 338.881Z" fill="#BF2C2F"/>
<path d="M-74.8416 270.971L-50.8052 311.194L-12.0692 287.997L26.6668 264.801L2.63043 224.579L-21.4059 184.357L-60.142 207.553L-98.8779 230.749L-74.8416 270.971ZM-56.6205 261.053C-69.4463 241.088 -69.0264 238.891 -49.836 226.453C-30.6457 214.014 -28.4488 214.531 -15.623 234.497C-2.79711 254.463 -3.21712 256.66 -22.4074 269.098C-41.5978 281.504 -43.7623 281.019 -56.6205 261.053Z" fill="#BF2C2F"/>
<path d="M408.082 339.365H407.921L408.146 339.236C408.114 339.3 408.082 339.333 408.082 339.365Z" fill="#20C7AB"/>
<path d="M419.293 332.807L429.663 326.83C430.923 328.736 432.248 330.901 433.734 333.453C434.929 335.521 435.963 337.524 436.803 339.398H425.173C424.139 335.553 422.039 333.292 419.293 332.807Z" fill="#20C7AB"/>
<path d="M353.483 339.365H364.016C366.697 331.256 368.215 319.464 367.698 308.092C366.923 291.002 370.606 274.493 375.872 271.489C389.247 263.767 393.576 274.59 384.014 291.907C377.649 303.472 378.231 305.314 386.953 301.017C393.447 297.819 393.059 301.954 385.984 311.226C378.844 320.595 377.972 330.061 383.82 334.907C385.823 336.555 387.05 338.041 387.503 339.398H407.921L408.244 339.236C409.019 337.395 410.441 335.747 412.734 334.422C415.157 333.001 417.419 332.516 419.325 332.872L429.695 326.895C422.103 315.361 417.903 315.297 409.439 323.826C402.558 330.74 395.547 332.161 392.672 327.186C389.958 322.469 392.058 318.818 397.356 319.077C410.602 319.691 402.332 278.758 382.721 246.741C368.603 223.707 367.246 223.028 372.028 241.411L377.52 262.507L362.109 244.674C353.645 234.885 349.542 225.225 352.967 223.222C365.825 215.791 354.097 192.175 336.425 189.946C317.267 187.523 303.246 173.695 307.22 164.456L273.685 183.808C279.501 183.678 284.314 188.04 290.097 198.055C296.268 208.749 308.803 220.088 317.946 223.254C327.089 226.42 342.079 237.76 351.287 248.486L367.989 267.967L343.727 250.392C327.347 238.535 314.263 235.596 303.375 241.346C294.523 246.031 290.259 245.934 293.909 241.152C301.792 230.782 291.745 210.009 281.633 215.824C277.788 218.053 272.619 216.405 270.164 212.173C267.709 207.941 270.035 204.646 275.333 204.904C280.631 205.162 282.957 201.867 280.502 197.635C278.047 193.403 271.327 192.66 265.512 195.987C252.815 203.321 266.61 230.556 281.988 228.585C290.711 227.487 291.196 228.327 284.444 232.85C270.035 242.477 287.674 260.892 302.891 252.104C311.226 247.291 323.567 249.229 332.581 256.821C351.642 272.813 350.899 283.83 331.547 271.909C323.761 267.095 312.066 266.384 305.572 270.293C294.685 276.852 295.04 277.433 310.321 277.724C319.432 277.918 329.867 283.765 333.485 290.776C337.524 298.562 336.684 300.759 331.289 296.43C326.443 292.553 319.69 290.97 316.266 292.94C312.841 294.911 314.715 300.403 320.401 305.12C331.902 314.683 352.708 306.606 346.085 295.137C343.759 291.131 345.148 285.962 349.154 283.668C354.033 280.858 356.714 285.865 357.328 298.82C357.974 312.744 353.225 319.432 340.367 322.695C322.921 327.089 322.986 327.283 342.628 330.643C358.685 333.356 360.979 334.649 353.483 339.365ZM297.205 193.177C289.193 178.283 289.484 178.186 304.797 190.527C313.584 197.603 326.669 202.513 333.873 201.479C341.078 200.446 346.925 203.806 346.861 208.975C346.634 223.448 306.671 210.752 297.205 193.177Z" fill="#20C7AB"/>
<path d="M332.807 158.608C339.656 170.497 341.142 180.028 336.07 179.769C330.998 179.543 325.861 173.502 324.666 166.362C323.826 161.419 321.532 158.544 318.366 157.962L328.736 151.985C329.996 153.891 331.321 156.056 332.807 158.608Z" fill="#20C7AB"/>
<path d="M264.769 184.683C268.096 182.777 270.972 181.84 273.653 181.808L307.285 162.391C308.06 160.55 309.481 158.902 311.775 157.577C314.198 156.156 316.46 155.671 318.366 156.027L328.736 150.05C321.144 138.516 316.944 138.452 308.48 146.981C301.599 153.894 294.588 155.316 291.713 150.341C288.999 145.624 291.099 141.973 296.397 142.232C309.643 142.845 301.372 101.912 281.762 69.8963C267.644 46.8615 266.287 46.1831 271.069 64.5657L276.561 85.6621L261.15 67.8287C252.686 58.0397 248.583 48.3799 252.007 46.3769C264.866 38.9463 253.138 15.3299 235.466 13.1007C216.308 10.6777 202.287 -3.14964 206.261 -12.3894L172.726 6.96245C178.541 6.83322 183.355 11.1947 189.138 21.2098C195.309 31.9034 207.844 43.2432 216.987 46.4092C226.13 49.5753 241.12 60.915 250.327 71.6409L267.03 91.122L242.768 73.547C226.388 61.6904 213.304 58.7505 202.416 64.5011C193.564 69.1856 189.3 69.0887 192.95 64.3072C200.833 53.9367 190.786 33.1634 180.674 38.9786C176.829 41.2078 171.66 39.5601 169.205 35.3279C166.749 31.0957 169.076 27.8327 174.374 28.0589C179.672 28.285 181.998 25.022 179.543 20.7898C177.088 16.5576 170.368 15.8146 164.553 19.1422C151.856 26.4758 165.651 53.7106 181.029 51.7399C189.752 50.6414 190.237 51.4814 183.484 56.0044C169.075 65.6319 186.715 84.0468 201.932 75.2593C210.267 70.4456 222.608 72.384 231.622 79.9761C250.683 95.9681 249.94 106.985 230.588 95.0635C222.802 90.2497 211.107 89.539 204.613 93.4481C193.726 100.006 194.081 100.588 209.362 100.879C218.473 101.073 228.908 106.92 232.526 113.931C236.565 121.717 235.725 123.914 230.329 119.584C225.483 115.708 218.731 114.125 215.307 116.095C211.882 118.066 213.756 123.558 219.442 128.275C230.943 137.838 251.749 129.761 245.126 118.292C242.8 114.286 244.189 109.117 248.195 106.823C253.073 104.012 255.755 109.02 256.369 121.975C257.015 135.899 252.266 142.587 239.408 145.85C221.962 150.244 222.027 150.438 241.669 153.797C259.309 156.802 260.343 158.094 249.94 164.103C243.414 167.883 240.926 175.863 244.383 181.872C247.937 187.914 256.983 189.174 264.769 184.683ZM196.278 16.3638C188.266 1.47028 188.557 1.37334 203.87 13.7146C212.658 20.7898 225.742 25.7005 232.946 24.6666C240.151 23.6328 245.998 26.9928 245.934 32.1619C245.708 46.6354 205.744 33.9387 196.278 16.3638ZM258.275 171.469C263.702 166.462 267.547 148.37 266.772 131.279C265.996 114.189 269.679 97.6803 274.945 94.6434C288.32 86.9221 292.65 97.7449 283.087 115.061C276.722 126.627 277.304 128.469 286.027 124.172C292.52 120.974 292.133 125.109 285.057 134.381C277.918 143.75 277.045 153.216 282.893 158.062C290.356 164.265 287.448 167.819 270.519 173.343C257.338 177.64 252.395 176.865 258.275 171.469Z" fill="#20C7AB"/>
<path d="M231.848 -16.2047C238.697 -4.31573 240.183 5.21478 235.111 4.95632C230.039 4.73018 224.902 -1.3112 223.707 -8.45103C222.867 -13.394 220.573 -16.2693 217.407 -16.8509L227.777 -22.8276C229.07 -20.9215 230.394 -18.7569 231.848 -16.2047Z" fill="#20C7AB"/>
<path d="M134.54 -159.712C128.207 -160.52 122.457 -162.555 117.708 -165.269H95.1251C97.0958 -163.783 99.648 -161.747 102.911 -159.131C111.698 -152.055 124.783 -147.145 131.987 -148.178C139.192 -149.212 145.039 -145.852 144.975 -140.683C144.781 -126.177 104.817 -138.874 95.3512 -156.449C93.1866 -160.423 91.6682 -163.363 90.8282 -165.269H75.4178C79.7146 -163.815 83.6561 -159.454 88.2114 -151.571C94.382 -140.877 106.917 -129.537 116.06 -126.371C125.203 -123.205 140.193 -111.866 149.401 -101.14L166.103 -81.6585L141.841 -99.2335C125.461 -111.09 112.377 -114.03 101.49 -108.279C92.6374 -103.595 88.3729 -103.692 92.0236 -108.473C99.9065 -118.844 89.859 -139.617 79.7469 -133.802C75.9024 -131.573 70.7333 -133.22 68.278 -137.453C65.8226 -141.685 68.1488 -144.948 73.4471 -144.722C78.7454 -144.495 81.0716 -147.758 78.6162 -151.991C76.1609 -156.223 69.4411 -156.966 63.6258 -153.638C50.9292 -146.305 64.7242 -119.07 80.1023 -121.041C88.8252 -122.139 89.3098 -121.299 82.5577 -116.776C68.1488 -107.149 85.7883 -88.7338 101.005 -97.5213C109.34 -102.335 121.681 -100.397 130.695 -92.8044C149.756 -76.8125 149.013 -65.7958 129.661 -77.7171C121.875 -82.5308 110.18 -83.2416 103.686 -79.3324C92.799 -72.7741 93.1543 -72.1926 108.436 -71.9018C117.546 -71.708 127.981 -65.8605 131.6 -58.8499C135.638 -51.0639 134.798 -48.867 129.403 -53.1962C124.557 -57.073 117.805 -58.656 114.38 -56.6853C110.955 -54.7145 112.829 -49.2224 118.515 -44.5056C130.017 -34.9427 150.822 -43.0194 144.199 -54.4884C141.873 -58.4945 143.262 -63.6636 147.268 -65.9574C152.147 -68.7681 154.828 -63.7605 155.442 -50.8054C156.088 -36.8811 151.339 -30.1936 138.481 -26.9306C121.035 -22.5369 121.1 -22.343 140.742 -18.9831C158.382 -15.9785 159.416 -14.6863 149.013 -8.67721C142.487 -4.8973 139.999 3.08251 143.456 9.09161C146.945 15.1653 155.991 16.4253 163.81 11.9023C167.137 9.99622 170.013 9.05933 172.694 9.02702L206.326 -10.3895C207.101 -12.231 208.522 -13.8786 210.816 -15.2032C213.239 -16.6247 215.501 -17.1093 217.407 -16.7539L227.777 -22.7307C220.185 -34.2643 215.985 -34.3289 207.521 -25.7998C200.639 -18.8862 193.629 -17.4647 190.754 -22.4399C188.04 -27.1568 190.14 -30.8074 195.438 -30.549C208.684 -29.9351 200.413 -70.868 180.803 -102.884C166.685 -125.919 165.328 -126.597 170.109 -108.215L175.602 -87.1184L160.191 -104.952C151.727 -114.741 147.624 -124.401 151.048 -126.404C163.971 -133.867 152.211 -157.483 134.54 -159.712ZM182.16 -57.7514C175.795 -46.1855 176.377 -44.344 185.1 -48.6409C191.594 -51.8392 191.206 -47.7039 184.131 -38.4319C176.991 -29.0629 176.118 -19.5969 181.966 -14.7509C189.429 -8.54795 186.521 -4.99419 169.592 0.530281C156.444 4.82711 151.501 4.05173 157.38 -1.34353C162.808 -6.3511 166.653 -24.443 165.877 -41.5333C165.102 -58.6237 168.785 -75.1326 174.051 -78.1371C187.361 -85.8908 191.69 -75.0679 182.16 -57.7514Z" fill="#20C7AB"/>
<path d="M723.56 157.122L715.677 161.677L754.671 229.199C800.224 308.125 803.843 312.486 817.056 304.862C826.425 299.466 828.299 291.907 822.677 282.182C818.058 274.17 811.208 269.389 807.461 271.553C803.713 273.718 805.329 279.339 811.015 284.056C816.701 288.773 817.864 294.653 813.599 297.14C808.979 299.789 798.964 288.805 788.917 270.132C779.612 252.815 777.642 245.223 784.491 253.268C794.926 265.48 801.549 265.253 824.584 251.975C847.489 238.762 853.595 238.536 860.573 250.618C866.195 260.343 864.321 267.902 854.952 273.298C847.231 277.756 838.831 277.788 836.246 273.33C833.694 268.904 837.409 264.413 844.549 263.38C851.657 262.346 855.663 258.307 853.434 254.431C851.204 250.554 843.031 251.006 835.309 255.464C825.94 260.86 824.067 268.419 829.688 278.144C835.859 288.837 842.772 290 855.631 282.57C870.266 274.138 874.982 275.818 884.028 292.876L885.934 296.43L893.106 292.294C890.07 285.93 885.805 278.111 880.184 268.387C854.952 224.676 854.952 224.676 833.888 236.823C816.119 247.097 811.208 246.16 802.324 230.782C793.924 216.211 795.313 210.558 809.367 202.449C820.287 196.149 829.3 196.44 833.21 203.256C836.666 209.265 833.952 217.31 827.168 221.154C816.604 227.131 815.764 226.227 821.288 214.984C826.813 203.741 825.94 202.869 815.408 208.813C808.624 212.658 805.91 220.702 809.367 226.711C813.276 233.496 822.29 233.819 833.21 227.519C849.589 218.053 849.363 214.951 829.72 180.965C810.11 146.978 807.525 145.233 791.146 154.667C778.288 162.097 775.832 168.688 782.003 179.349C786.688 187.458 795.087 191.206 800.935 187.846C806.718 184.518 809.464 178.283 807.009 174.051C804.553 169.819 800.579 170.174 798.124 174.891C795.701 179.608 791.695 179.963 789.24 175.731C786.784 171.499 789.531 165.296 795.313 161.936C801.161 158.544 809.593 162.323 814.245 170.432C820.416 181.126 817.993 187.717 805.102 195.115C791.081 203.224 785.46 201.609 777.028 187.038C769.306 173.696 762.78 170.982 752.474 176.926C742.169 182.871 735.642 180.189 727.921 166.814C725.853 163.067 724.367 159.9 723.56 157.122ZM757.256 205.841C765.236 215.921 774.702 222.479 778.288 220.411C781.906 218.344 789.627 225.904 795.443 237.211C804.553 254.851 804.262 255.723 793.537 243.155C786.655 235.111 778.094 230.233 774.508 232.3C770.922 234.368 762.296 225.128 755.35 211.785C743.655 189.203 743.784 188.783 757.256 205.841ZM764.622 187.038C769.468 190.915 774.185 199.121 775.122 205.259C776.059 211.398 772.117 208.199 766.334 198.184C760.551 188.169 759.776 183.161 764.622 187.038Z" fill="#BF2C2F"/>
<path d="M622.633 -17.6908L614.75 -13.1356L653.744 54.3859C699.297 133.312 702.915 137.673 716.129 130.049C725.498 124.653 727.372 117.094 721.75 107.369C717.13 99.3572 710.281 94.5757 706.534 96.7403C702.786 98.9049 704.401 104.526 710.087 109.243C715.773 113.96 716.937 119.84 712.672 122.327C708.052 124.977 698.037 113.992 687.989 95.3188C678.685 78.0023 676.714 70.4101 683.563 78.4546C693.999 90.6666 700.622 90.4405 723.656 77.1623C746.562 63.9488 752.668 63.7226 759.646 75.8054C765.268 85.5298 763.394 93.0896 754.025 98.4849C746.303 102.943 737.904 102.976 735.319 98.5172C732.767 94.0911 736.482 89.6005 743.622 88.5667C750.73 87.5328 754.736 83.4945 752.506 79.6176C750.277 75.7408 742.104 76.1931 734.382 80.6515C725.013 86.0467 723.139 93.6066 728.761 103.331C734.931 114.025 741.845 115.188 754.703 107.757C769.338 99.3249 774.055 101.005 783.101 118.063L785.007 121.617L792.179 117.481C789.142 111.117 784.878 103.299 779.257 93.5742C754.025 49.863 754.025 49.8629 732.961 62.0103C715.192 72.284 710.281 71.3471 701.397 55.969C692.997 41.3985 694.386 35.7448 708.44 27.6358C719.359 21.3359 728.373 21.6267 732.282 28.4434C735.739 34.4525 733.025 42.497 726.241 46.3415C715.677 52.3183 714.837 51.4137 720.361 40.1709C725.885 28.9281 725.013 28.0558 714.481 34.0002C707.697 37.8448 704.983 45.8892 708.44 51.8983C712.349 58.6827 721.363 59.0058 732.282 52.7059C748.662 43.24 748.436 40.1386 728.793 6.15169C709.183 -27.8352 706.598 -29.5798 690.219 -20.1462C677.361 -12.7156 674.905 -6.12494 681.076 4.53634C685.76 12.6454 694.16 16.393 700.008 13.033C705.791 9.70542 708.537 3.47021 706.081 -0.761993C703.626 -4.9942 699.652 -4.63884 697.197 0.0779705C694.774 4.79478 690.768 5.15014 688.313 0.917933C685.857 -3.31428 688.603 -9.51717 694.386 -12.8771C700.234 -16.2693 708.666 -12.4894 713.318 -4.3804C719.489 6.31319 717.066 12.9038 704.175 20.3021C690.154 28.4111 684.533 26.7958 676.101 12.2254C668.379 -1.1174 661.853 -3.83115 651.547 2.11332C641.241 8.0578 634.715 5.37631 626.994 -7.99876C624.926 -11.7464 623.44 -14.9124 622.633 -17.6908ZM656.329 31.028C664.309 41.1078 673.774 47.6661 677.36 45.5984C680.979 43.5308 688.7 51.0906 694.515 62.398C703.626 80.0376 703.335 80.9099 692.609 68.3425C685.728 60.2981 677.167 55.4198 673.581 57.4874C669.995 59.555 661.369 50.3152 654.423 36.9725C642.727 14.3576 642.857 13.97 656.329 31.028ZM663.695 12.2254C668.541 16.1022 673.258 24.3081 674.194 30.4465C675.131 36.5848 671.19 33.3864 665.407 23.3713C659.624 13.3561 658.849 8.34853 663.695 12.2254Z" fill="#BF2C2F"/>
<path d="M764.783 133.312L757.546 137.479C753.12 132.569 744.882 132.827 735.093 138.513C724.723 144.522 721.266 149.175 723.592 157.122L715.709 161.677L706.34 145.427L730.893 131.244C751.473 119.355 756.351 119.323 764.783 133.312Z" fill="#BF2C2F"/>
<path d="M226.001 212.528C231.783 222.543 233.366 232.559 229.49 234.788C225.645 237.017 217.73 230.653 211.947 220.637C211.753 220.314 211.624 220.024 211.462 219.7L225.419 211.624C225.613 211.947 225.807 212.205 226.001 212.528Z" fill="#BF2C2F"/>
<path d="M254.722 278.499C258.566 276.27 267.418 284.282 274.364 296.3C281.31 308.318 283.83 319.981 279.953 322.21C276.109 324.44 267.257 316.427 260.311 304.409C253.365 292.391 250.845 280.728 254.722 278.499Z" fill="#388CBA"/>
<path d="M263.154 244.48C269.227 254.98 267.03 261.344 255.271 267.321C243.026 273.556 241.54 273.007 249.358 265.156C255.045 259.438 257.855 251.49 255.561 247.549C253.268 243.608 249.423 244.221 247 248.938C244.577 253.655 240.571 254.01 238.116 249.778C235.66 245.546 238.406 239.343 244.189 235.983C250.069 232.623 258.469 236.403 263.154 244.48Z" fill="#FFA227"/>
<path d="M288.611 337.201C286.156 332.969 288.902 326.766 294.685 323.406C300.533 320.014 308.965 323.794 313.617 331.903C315.2 334.649 316.202 337.136 316.654 339.365H306.8C306.962 337.653 306.736 336.135 306.057 334.972C303.763 331.03 299.919 331.644 297.496 336.361C296.785 337.75 295.913 338.752 295.008 339.365H290.518C289.807 338.881 289.161 338.17 288.611 337.201Z" fill="#FFA227"/>
<path d="M125.074 37.7156C130.857 47.7307 132.44 57.7459 128.563 59.975C124.718 62.2042 116.803 55.8398 111.02 45.8246C110.826 45.5016 110.697 45.2108 110.536 44.8877L124.492 36.811C124.686 37.134 124.88 37.3925 125.074 37.7156Z" fill="#BF2C2F"/>
<path d="M153.794 103.686C157.639 101.457 166.491 109.469 173.437 121.487C180.383 133.506 182.903 145.168 179.026 147.398C175.182 149.627 166.33 141.615 159.384 129.596C152.438 117.546 149.918 105.916 153.794 103.686Z" fill="#388CBA"/>
<path d="M162.227 69.6671C168.3 80.1668 166.103 86.5313 154.344 92.5081C142.099 98.7433 140.613 98.1941 148.432 90.3435C154.118 84.6252 156.928 76.6777 154.634 72.7363C152.341 68.7948 148.496 69.4086 146.073 74.1254C143.65 78.8422 139.644 79.1976 137.189 74.9654C134.733 70.7332 137.479 64.5303 143.262 61.1704C149.142 57.8104 157.542 61.5903 162.227 69.6671Z" fill="#FFA227"/>
<path d="M212.69 157.09C218.764 167.589 216.567 173.954 204.807 179.931C192.563 186.166 191.077 185.617 198.895 177.766C204.581 172.048 207.392 164.1 205.098 160.159C202.804 156.217 198.96 156.831 196.537 161.548C194.114 166.265 190.108 166.62 187.652 162.388C185.197 158.156 187.943 151.953 193.726 148.593C199.606 145.201 208.006 148.981 212.69 157.09Z" fill="#FFA227"/>
<path d="M208.458 198.378C212.205 196.213 219.701 202.158 225.419 211.656L211.462 219.733C206.132 210.008 204.71 200.543 208.458 198.378Z" fill="#BF2C2F"/>
<path d="M111.763 -17.7555C117.837 -7.25574 115.64 -0.891251 103.88 5.08553C91.6358 11.3208 90.1497 10.7716 97.968 2.92097C103.654 -2.79735 106.465 -10.7448 104.171 -14.6863C101.877 -18.6277 98.0326 -18.0139 95.6096 -13.2971C93.1866 -8.58031 89.1805 -8.22495 86.7252 -12.4572C84.2699 -16.6894 87.016 -22.8923 92.7989 -26.2522C98.6788 -29.6121 107.079 -25.8322 111.763 -17.7555Z" fill="#FFA227"/>
<path d="M107.531 23.5652C111.279 21.4006 118.774 27.3451 124.492 36.8433L110.535 44.92C105.173 35.1957 103.783 25.6974 107.531 23.5652Z" fill="#BF2C2F"/>
<path d="M91.7975 332.549C104.042 326.313 105.528 326.863 97.7096 334.713C96.2558 336.167 94.9958 337.75 93.962 339.398H82.7192C84.5607 336.91 87.533 334.713 91.7975 332.549Z" fill="#388CBA"/>
<path d="M88.179 314.069C84.4314 316.234 76.9362 310.289 71.2179 300.791L85.1745 292.714C90.5052 302.439 91.8943 311.937 88.179 314.069Z" fill="#20C7AB"/>
<path d="M84.69 291.81C84.8838 292.133 85.0131 292.423 85.1746 292.746L71.218 300.823C71.0241 300.532 70.8303 300.242 70.6688 299.919C64.8858 289.903 63.3028 279.888 67.1796 277.659C70.9918 275.43 78.907 281.794 84.69 291.81Z" fill="#20C7AB"/>
<path d="M41.9155 233.948C38.071 236.177 29.2189 228.165 22.2729 216.147C15.3269 204.129 12.807 192.466 16.6838 190.237C20.5284 188.007 29.3804 196.02 36.3264 208.038C43.2401 220.088 45.7601 231.719 41.9155 233.948Z" fill="#20C7AB"/>
<path d="M41.3341 245.126C53.5784 238.891 55.0645 239.44 47.2462 247.291C41.5602 253.009 38.7495 260.956 41.0433 264.898C43.3371 268.839 47.1816 268.225 49.6046 263.509C52.0277 258.792 56.0337 258.437 58.489 262.669C60.9444 266.901 58.1983 273.104 52.4154 276.464C46.5678 279.856 38.1357 276.076 33.4835 267.967C27.4098 257.467 29.6067 251.103 41.3341 245.126Z" fill="#388CBA"/>
<path d="M-16.98 180.544C-23.0537 170.045 -20.8568 163.68 -9.09711 157.703C3.14722 151.468 4.63334 152.017 -3.18493 159.868C-8.87095 165.586 -11.6817 173.534 -9.38786 177.475C-7.09407 181.417 -3.24956 180.803 -0.826544 176.086C1.59648 171.369 5.60254 171.014 8.05786 175.246C10.5132 179.478 7.76713 185.681 1.98419 189.041C-3.89567 192.433 -12.3278 188.653 -16.98 180.544Z" fill="#388CBA"/>
<path d="M702.722 -63.922L712.834 -69.7696C731.346 -38.0119 750.891 -4.28343 771.115 30.7696C785.815 56.2274 800.03 81.0715 813.793 105.076L803.681 110.923C770.178 53.1906 735.125 -7.25566 702.722 -63.922Z" fill="#388CBA"/>
<path d="M726.435 212.69C726.37 218.538 723.495 224.934 720.103 226.905C709.248 233.173 695.226 220.541 698.457 207.456C702.366 191.852 726.661 196.375 726.435 212.69Z" fill="#FFA227"/>
<path d="M692.157 184.777C679.396 192.143 675.39 193.209 674.356 185.52L700.848 170.239C707.956 174.374 705.371 177.152 692.157 184.777Z" fill="#388CBA"/>
<path d="M675.971 125.3C675.907 131.147 673.032 137.544 669.639 139.515C658.784 145.782 644.763 133.15 647.994 120.066C651.903 104.429 676.198 108.985 675.971 125.3Z" fill="#FFA227"/>
<path d="M693.87 166.814C696.874 168.106 699.071 169.205 700.848 170.239L674.356 185.52C674.033 183.226 673.969 180.222 674.033 176.248C674.227 165.683 675.002 157.607 675.745 158.253C676.488 158.931 684.662 162.776 693.87 166.814Z" fill="#388CBA"/>
<path d="M643.406 79.3916C658.364 85.9176 658.203 87.856 641.694 97.3865C625.12 106.949 623.279 106.077 623.57 88.8575C623.764 78.2931 624.539 70.2164 625.282 70.8626C626.025 71.541 634.199 75.3532 643.406 79.3916Z" fill="#388CBA"/>
<path d="M625.508 37.8771C625.443 43.7247 622.568 50.1215 619.176 52.0922C608.321 58.3597 594.299 45.7277 597.53 32.6434C601.439 17.0392 625.734 21.5621 625.508 37.8771Z" fill="#FFA227"/>
<path d="M591.23 9.96388C578.469 17.3299 574.463 18.396 573.429 10.7069L599.921 -4.57423C606.996 -0.438947 604.444 2.33945 591.23 9.96388Z" fill="#388CBA"/>
<path d="M592.943 -8.031C595.947 -6.73872 598.144 -5.6403 599.921 -4.60647L573.429 10.6747C573.106 8.3809 573.042 5.37637 573.106 1.40262C573.3 -9.16175 574.075 -17.2385 574.818 -16.5924C575.562 -15.8816 583.735 -12.0371 592.943 -8.031Z" fill="#388CBA"/>
<path d="M468.593 313.811C468.399 324.375 467.624 332.452 466.881 331.805C466.138 331.159 457.997 327.315 448.757 323.276C445.752 321.984 443.556 320.886 441.779 319.852L468.27 304.571C468.561 306.832 468.658 309.837 468.593 313.811Z" fill="#BF2C2F"/>
<path d="M393.673 195.18C389.797 210.816 365.502 206.293 365.696 189.946C365.76 184.098 368.636 177.701 372.028 175.731C382.883 169.463 396.936 182.095 393.673 195.18Z" fill="#388CBA"/>
<path d="M367.634 138.998C367.44 149.562 366.665 157.639 365.922 156.993C365.179 156.347 357.037 152.502 347.798 148.464C344.793 147.172 342.596 146.073 340.819 145.039L367.311 129.758C367.634 132.02 367.731 135.024 367.634 138.998Z" fill="#BF2C2F"/>
<path d="M418.097 226.388C417.903 236.952 417.128 245.029 416.385 244.383C415.642 243.737 407.501 239.892 398.261 235.854C383.303 229.328 383.464 227.39 399.973 217.859C416.547 208.296 418.42 209.169 418.097 226.388Z" fill="#20C7AB"/>
<path d="M444.137 282.57C440.26 298.206 415.965 293.683 416.159 277.336C416.224 271.488 419.099 265.092 422.491 263.121C433.347 256.886 447.4 269.485 444.137 282.57Z" fill="#388CBA"/>
<path d="M468.27 304.539L441.779 319.82C434.703 315.684 437.288 312.906 450.469 305.281C463.198 297.916 467.204 296.849 468.27 304.539Z" fill="#BF2C2F"/>
<path d="M292.747 20.3345C288.87 35.9711 264.575 31.4481 264.769 15.1008C264.833 9.25321 267.709 2.85645 271.101 0.885732C281.956 -5.3495 296.01 7.25021 292.747 20.3345Z" fill="#388CBA"/>
<path d="M317.171 51.5752C316.977 62.1396 316.201 70.2163 315.458 69.5702C314.715 68.924 306.574 65.0795 297.334 61.0411C282.376 54.5151 282.537 52.5768 299.046 43.0462C315.62 33.4834 317.494 34.3556 317.171 51.5752Z" fill="#20C7AB"/>
<path d="M343.21 107.757C339.333 123.394 315.038 118.871 315.232 102.523C315.297 96.6758 318.172 90.279 321.564 88.3083C332.419 82.0731 346.473 94.6728 343.21 107.757Z" fill="#388CBA"/>
<path d="M367.343 129.693L340.852 144.975C333.776 140.839 336.361 138.061 349.542 130.436C362.271 123.103 366.277 122.004 367.343 129.693Z" fill="#BF2C2F"/>
<path d="M645.538 362.659L677.878 364.726L662.047 339.365H648.737C649.221 340.011 649.641 340.658 649.997 341.304C657.589 354.55 656.297 355.422 636.912 350.091C629.87 348.153 622.245 344.082 616.268 339.398H599.986C612.973 359.428 617.464 360.849 645.538 362.659Z" fill="#BF2C2F"/>
<path d="M627.414 452.149L610.388 424.849C594.235 398.972 591.683 397.453 561.023 395.482L528.684 393.415L543.965 417.903L600.212 450.372L627.414 452.149ZM586.481 437.481C574.657 434.218 561.185 424.946 556.533 416.87C548.941 403.624 550.233 402.752 569.617 408.082C581.441 411.345 594.913 420.617 599.566 428.694C607.158 441.94 605.865 442.812 586.481 437.481Z" fill="#20C7AB"/>
<path d="M490.336 386.953L493.889 380.783L502.095 393.738L523.063 405.853L506.877 380.977L552.979 384.272L599.081 387.567L624.151 426.077L649.221 464.587L621.34 462.584L641.5 474.214L657.815 475.087L654.1 481.516L668.121 489.625L754.865 339.365H724.076C725.918 342.079 728.696 344.664 731.798 346.861L726.338 356.294C721.33 352.902 717.033 347.733 711.315 339.333H697.455L717.615 371.382L713.447 378.618L688.603 339.333H675.034L699.62 377.132L653.518 373.837L607.416 370.542L587.095 339.301H573.397L596.335 375.581L545.904 372.932C545.904 372.932 511.303 371.091 499.737 370.509L503.711 363.596L541.413 365.049L582.927 366.632L565.029 339.301H552.107L563.866 355.034L535.436 353.128C524.775 352.417 517.829 351.384 512.175 348.993L517.538 339.688C520.413 341.175 523.353 342.37 526.132 342.758C535.501 344.114 538.505 343.791 537.019 339.301H499.059L476.25 378.78L490.336 386.953ZM671.384 404.464C681.754 405.691 688.959 407.371 695.097 410.505L690.154 419.034C686.923 417.225 683.531 415.804 680.365 415.319C667.572 413.445 666.602 414.737 672.837 425.56C674.647 428.726 677.748 431.763 681.334 434.283L675.874 443.717C670.511 440.066 665.956 434.38 659.559 424.849L643.697 401.169L671.384 404.464ZM660.593 385.177L708.278 387.696L704.046 394.998L665.245 392.801L624.183 390.475L646.314 425.625L667.216 458.836L663.049 466.073L637.106 425.043L610.194 382.495L660.593 385.177Z" fill="#FFA227"/>
<path d="M510.56 482.905L478.221 480.837L495.246 508.137C511.4 534.015 513.952 535.533 544.611 537.504L576.951 539.571L559.925 512.272C543.771 486.394 541.252 484.876 510.56 482.905ZM536.018 524.904C524.193 521.641 510.722 512.369 506.069 504.292C498.477 491.046 499.769 490.174 519.154 495.505C530.978 498.768 544.45 508.04 549.102 516.117C556.694 529.362 555.402 530.235 536.018 524.904Z" fill="#BF2C2F"/>
<path d="M526.487 626.962L509.462 599.662C493.308 573.784 490.756 572.266 460.097 570.295L427.757 568.228L443.038 592.716L499.285 625.185L526.487 626.962ZM485.554 612.294C473.73 609.031 460.258 599.759 455.606 591.682C448.014 578.437 449.306 577.564 468.69 582.895C480.515 586.158 493.987 595.43 498.639 603.507C506.231 616.753 504.906 617.625 485.554 612.294Z" fill="#20C7AB"/>
<path d="M595.075 450.081L600.212 450.404L543.965 417.936L545.71 420.714C561.863 446.592 564.416 448.11 595.075 450.081Z" fill="#20C7AB"/>
<path d="M653.583 482.388L614.782 480.191L573.72 477.865L595.85 513.015L616.753 546.227L612.585 553.463L586.643 512.434L559.731 469.885L610.162 472.535L641.5 474.182L621.34 462.552L603.152 461.259L557.05 457.964L531.98 419.454L523.095 405.821L502.128 393.706L519.057 420.488L545.968 463.036L495.537 460.387C495.537 460.387 460.937 458.546 449.371 457.964L453.344 451.05L491.047 452.504L532.561 454.087L510.011 419.68L489.528 388.44L490.368 386.953L476.347 378.844L375.42 553.657L389.441 561.766L392.995 555.596L401.201 568.551L422.168 580.666L405.982 555.789L452.085 559.085L498.186 562.38L523.257 600.89L548.327 639.4L520.446 637.429L540.606 649.06L556.92 649.932L553.205 656.361L567.226 664.47L668.153 489.657L654.132 481.548L653.583 482.388ZM485.005 440.615C474.344 439.905 467.398 438.871 461.744 436.48L467.107 427.176C469.983 428.662 472.923 429.857 475.701 430.245C488.494 432.119 489.464 430.826 483.228 420.003C481.613 417.16 478.964 414.414 475.83 412.056L480.805 403.43C486.104 407.145 490.917 412.379 496.765 420.197L513.435 442.521L485.005 440.615ZM434.542 528.038C423.881 527.327 416.935 526.293 411.281 523.903L416.644 514.598C419.519 516.084 422.459 517.28 425.237 517.667C438.031 519.541 439 518.249 432.765 507.426C431.15 504.583 428.5 501.837 425.367 499.478L430.342 490.852C435.64 494.568 440.454 499.802 446.302 507.62L462.972 529.944L434.542 528.038ZM445.042 547.81C445.042 547.81 410.441 545.968 398.875 545.387L402.849 538.473L440.551 539.927L482.065 541.51L459.515 507.103L439.033 475.862L443.459 468.205L468.593 507.943L495.505 550.491L445.042 547.81ZM552.656 548.714L506.554 545.419L481.484 506.909L456.414 468.399L502.516 471.695L548.618 474.99L573.688 513.5L598.758 552.01L552.656 548.714ZM570.457 579.277C580.828 580.504 588.032 582.184 594.17 585.318L589.227 593.847C585.997 592.038 582.604 590.616 579.438 590.132C566.645 588.258 565.676 589.55 571.911 600.373C573.72 603.539 576.822 606.576 580.408 609.096L574.948 618.53C569.585 614.879 565.029 609.193 558.633 599.662L542.77 575.981L570.457 579.277ZM559.667 559.989L607.352 562.509L603.119 569.811L564.319 567.614L523.257 565.288L545.387 600.438L566.289 633.649L562.122 640.886L536.179 599.856L509.268 557.308L559.667 559.989ZM620.92 491.854C631.291 493.082 638.495 494.762 644.634 497.895L639.691 506.424C636.46 504.615 633.068 503.194 629.902 502.709C617.108 500.835 616.139 502.128 622.374 512.951C624.184 516.117 627.285 519.153 630.871 521.673L625.411 531.107C620.048 527.456 615.493 521.77 609.096 512.24L593.234 488.559L620.92 491.854Z" fill="#FFA227"/>
<path d="M409.633 657.718L377.294 655.65L394.32 682.95C410.473 708.827 413.025 710.346 443.685 712.317L476.024 714.384L458.998 687.085C442.845 661.207 440.292 659.689 409.633 657.718ZM435.091 699.717C423.267 696.454 409.795 687.182 405.142 679.105C397.55 665.859 398.843 664.987 418.227 670.318C430.051 673.581 443.523 682.853 448.175 690.929C455.767 704.175 454.443 705.048 435.091 699.717Z" fill="#BF2C2F"/>
<path d="M494.148 624.894L499.285 625.217L443.038 592.748L444.783 595.527C460.936 621.405 463.489 622.923 494.148 624.894Z" fill="#20C7AB"/>
<path d="M552.656 657.201L513.855 655.004L472.793 652.678L494.923 687.828L515.826 721.039L511.658 728.276L485.716 687.246L458.804 644.698L509.235 647.347L540.573 648.995L520.413 637.364L502.225 636.072L456.123 632.777L431.052 594.267L422.168 580.633L401.201 568.518L418.13 595.301L445.041 637.849L394.61 635.2C394.61 635.2 360.009 633.358 348.444 632.777L352.417 625.863L390.12 627.317L431.634 628.9L409.084 594.493L388.601 563.252L389.441 561.766L375.42 553.657L274.493 728.47L288.514 736.579L292.068 730.408L300.274 743.363L321.241 755.479L305.055 730.602L351.157 733.898L397.259 737.193L422.33 775.703L447.4 814.213L419.519 812.242L439.678 823.872L455.993 824.745L452.278 831.174L466.299 839.283L567.226 664.47L553.205 656.361L552.656 657.201ZM384.078 615.428C373.417 614.717 366.471 613.683 360.817 611.293L366.18 601.988C369.055 603.475 371.995 604.67 374.774 605.058C387.567 606.931 388.537 605.639 382.301 594.816C380.686 591.973 378.037 589.227 374.903 586.869L379.878 578.243C385.177 581.958 389.99 587.192 395.838 595.01L412.508 617.334L384.078 615.428ZM333.615 702.851C322.953 702.14 316.007 701.106 310.354 698.715L315.717 689.411C318.592 690.897 321.532 692.092 324.31 692.48C337.104 694.354 338.073 693.062 331.838 682.239C330.223 679.428 327.573 676.65 324.44 674.291L329.415 665.665C334.713 669.381 339.527 674.614 345.375 682.433L362.045 704.757L333.615 702.851ZM344.114 722.622C344.114 722.622 309.514 720.781 297.948 720.199L301.922 713.286L339.624 714.74L381.138 716.323L358.588 681.916L338.105 650.675L342.531 643.018L367.666 682.756L394.578 725.304L344.114 722.622ZM451.729 723.527L405.627 720.232L380.557 681.722L355.486 643.212L401.589 646.507L447.691 649.803L472.761 688.313L497.831 726.822L451.729 723.527ZM469.53 754.089C479.901 755.317 487.105 756.997 493.243 760.131L488.3 768.66C485.07 766.851 481.677 765.429 478.511 764.945C465.718 763.071 464.749 764.363 470.984 775.186C472.793 778.352 475.894 781.389 479.48 783.909L474.021 793.342C468.658 789.692 464.102 784.006 457.706 774.475L441.843 750.794L469.53 754.089ZM458.74 734.802L506.424 737.322L502.192 744.623L463.392 742.427L422.33 740.101L444.46 775.25L465.362 808.462L461.195 815.699L435.252 774.669L408.341 732.121L458.74 734.802ZM519.993 666.699C530.364 667.927 537.568 669.607 543.707 672.741L538.764 681.27C535.533 679.46 532.141 678.039 528.975 677.554C516.181 675.68 515.212 676.973 521.447 687.796C523.256 690.962 526.358 693.998 529.944 696.518L524.484 705.952C519.121 702.301 514.566 696.615 508.169 687.085L492.306 663.404L519.993 666.699Z" fill="#FFA227"/>
<path d="M189.978 364.985L158.544 374.063L166.103 406.176L173.373 437.061L189.332 446.269L182.063 415.48L174.471 383.27L206.003 374.192L237.534 365.114L231.428 339.365H217.665L221.413 355.939L189.978 364.985Z" fill="#FFA227"/>
<path d="M185.164 357.167C206.261 351.093 209.75 349.833 208.296 339.365H192.143C189.493 341.885 184.421 344.341 179.608 345.245C173.534 346.408 170.142 344.954 167.88 339.365H154.021L159.836 364.436L185.164 357.167Z" fill="#FFA227"/>
<path d="M136.284 415.642C133.538 409.504 130.017 408.373 127.594 410.634L136.284 415.642Z" fill="#FFA227"/>
<path d="M125.623 402.008C136.672 398.229 141.033 399.521 143.747 407.339C145.298 411.797 145.75 417.096 145.007 420.682L160.062 429.372C161.483 425.431 159.997 419.002 156.831 406.208L150.499 380.621L122.877 389.053L101.522 395.579L118.128 405.175C119.937 404.044 122.392 403.107 125.623 402.008Z" fill="#FFA227"/>
<path d="M202.578 416.03L198.475 397.033L215.016 393.156C224.095 391.024 233.754 385.435 236.468 380.783C239.763 375.065 231.719 374.903 211.947 380.266L182.516 388.246L189.106 416.643C192.724 432.248 198.152 442.78 201.189 440.034C204.161 437.288 204.807 426.465 202.578 416.03Z" fill="#388CBA"/>
<path d="M208.749 404.173C208.07 405.336 209.039 409.213 210.881 412.767C212.722 416.32 216.535 415.222 219.378 410.311C222.221 405.401 221.251 401.524 217.245 401.718C213.239 401.911 209.427 403.01 208.749 404.173Z" fill="#20C7AB"/>
<path d="M251.555 352.708C253.526 350.899 254.495 345.698 254.302 339.398H242.283C245.514 349.122 249.229 354.808 251.555 352.708Z" fill="#388CBA"/>
<path d="M137.318 362.723L120.777 366.6C111.699 368.732 102.039 374.321 99.325 378.974C96.0297 384.692 104.074 384.853 123.846 379.491L153.278 371.511L146.687 343.113C146.396 341.821 146.073 340.561 145.75 339.365H132.407C132.601 340.819 132.86 342.273 133.183 343.727L137.318 362.723Z" fill="#388CBA"/>
<path d="M127.012 355.583C127.69 354.42 126.721 350.543 124.88 346.99C123.038 343.436 119.226 344.534 116.383 349.445C113.54 354.356 114.509 358.233 118.515 358.039C122.521 357.845 126.366 356.746 127.012 355.583Z" fill="#BF2C2F"/>
<path d="M173.663 438.289L148.722 446.043L123.781 453.796L117.449 430.374C112.926 413.639 112.183 408.631 118.128 405.11L101.522 395.515L95.2543 397.421L104.656 433.799L112.571 464.425L118.289 462.842C118.289 462.842 119.291 467.107 119.646 468.529L151.856 458.933L189.687 447.658L189.364 446.237L173.405 437.029L173.663 438.289Z" fill="#FFA227"/>
<path d="M144.167 423.17C142.293 426.4 139.418 424.203 137.221 417.904C136.93 417.064 136.607 416.353 136.316 415.642L127.626 410.634C124.88 413.154 123.491 419.874 126.043 428.371C130.146 442.004 131.567 442.618 146.848 437.385C154.699 434.703 158.737 433.152 160.127 429.372L145.072 420.682C144.813 421.651 144.555 422.523 144.167 423.17Z" fill="#FFA227"/>
<path d="M112.539 464.49L82.0731 472.955L45.8571 483.002L52.383 511.141L58.909 539.281L84.2377 531.979C109.049 524.839 109.502 524.355 106.239 507.685C103.137 491.854 101.877 490.917 88.0176 494.18C70.798 498.219 67.535 512.337 84.5607 509.106C91.1514 507.846 94.479 509.268 92.6052 512.498C90.8606 515.535 84.593 518.927 78.6809 520.058C70.5395 521.609 67.2442 518.475 64.9827 507.006C62.2044 492.888 63.5289 491.531 85.4653 485.716L108.92 479.513L114.703 505.132L120.486 530.752L89.0514 539.798L57.6168 548.843L65.1766 580.957L72.4456 611.842L88.4053 621.049L81.1685 590.261L73.5764 558.051L105.108 548.973L136.639 539.895L127.464 501.385C127.464 501.385 121.617 476.799 119.646 468.561C119.291 467.139 118.289 462.875 118.289 462.875L112.539 464.49Z" fill="#FFA227"/>
<path d="M35.3573 590.455C32.6112 584.316 29.0897 583.186 26.6667 585.447L35.3573 590.455Z" fill="#FFA227"/>
<path d="M24.696 576.821C35.7449 573.041 40.1064 574.334 42.8201 582.152C44.3709 586.61 44.8232 591.909 44.0801 595.495L59.1352 604.185C60.5567 600.244 59.0705 593.815 55.9045 581.021L49.5723 555.434L21.9499 563.866L0.594971 570.392L17.2007 579.987C19.0099 578.889 21.4653 577.92 24.696 576.821Z" fill="#FFA227"/>
<path d="M101.619 590.842L97.5158 571.846L114.057 567.969C123.135 565.837 132.795 560.248 135.509 555.596C138.804 549.877 130.76 549.716 110.988 555.079L81.5562 563.058L88.1469 591.456C91.7652 607.06 97.1928 617.592 100.23 614.846C103.234 612.1 103.88 601.31 101.619 590.842Z" fill="#388CBA"/>
<path d="M107.822 578.986C107.143 580.149 108.113 584.026 109.954 587.579C111.796 591.133 115.608 590.035 118.451 585.124C121.294 580.214 120.325 576.337 116.318 576.531C112.312 576.724 108.5 577.823 107.822 578.986Z" fill="#20C7AB"/>
<path d="M152.05 503.517L147.947 484.52L164.488 480.644C173.566 478.511 183.226 472.922 185.94 468.27C189.235 462.552 181.191 462.39 161.419 467.753L131.987 475.733L138.578 504.131C142.196 519.735 147.624 530.267 150.661 527.521C153.665 524.775 154.311 513.984 152.05 503.517Z" fill="#388CBA"/>
<path d="M158.253 491.66C157.574 492.823 158.544 496.7 160.385 500.254C162.227 503.807 166.039 502.709 168.882 497.798C171.725 492.888 170.756 489.011 166.75 489.205C162.744 489.399 158.931 490.497 158.253 491.66Z" fill="#20C7AB"/>
<path d="M82.7191 431.214L86.8221 450.21L70.281 454.087C61.2028 456.219 51.543 461.809 48.8292 466.461C45.5339 472.179 53.5783 472.341 73.3502 466.978L102.782 458.998L96.1912 430.6C92.5728 414.996 87.1452 404.464 84.1084 407.21C81.1038 409.988 80.4577 420.779 82.7191 431.214Z" fill="#388CBA"/>
<path d="M76.5162 443.071C77.1947 441.908 76.2255 438.031 74.384 434.477C72.5425 430.923 68.7303 432.022 65.8873 436.932C63.0443 441.843 64.0135 445.72 68.0196 445.526C72.0256 445.332 75.8378 444.234 76.5162 443.071Z" fill="#BF2C2F"/>
<path d="M32.2882 518.54L36.3912 537.536L19.8501 541.413C10.7718 543.545 1.11208 549.134 -1.6017 553.786C-4.89701 559.505 3.1474 559.666 22.9192 554.303L52.3509 546.324L45.7603 517.926C42.1419 502.321 36.7143 491.789 33.6775 494.536C30.6729 497.314 30.0267 508.104 32.2882 518.54Z" fill="#388CBA"/>
<path d="M26.0852 530.396C26.7637 529.233 25.7945 525.356 23.953 521.803C22.1115 518.249 18.2993 519.347 15.4563 524.258C12.6132 529.169 13.5825 533.045 17.5885 532.851C21.5946 532.658 25.4068 531.559 26.0852 530.396Z" fill="#BF2C2F"/>
<path d="M72.7364 613.102L47.7954 620.856L22.8545 628.609L16.5223 605.187C11.9994 588.452 11.2563 583.444 17.2008 579.923L0.595006 570.328L-5.67255 572.234L3.72878 608.611L11.644 639.238L17.3623 637.655C17.3623 637.655 18.3638 641.92 18.7192 643.341L50.9292 633.746L88.7606 622.471L88.4376 621.049L72.4779 611.842L72.7364 613.102Z" fill="#FFA227"/>
<path d="M43.2402 597.982C41.3664 601.213 38.4911 599.016 36.2942 592.716C36.0035 591.876 35.6804 591.166 35.3896 590.455L26.6991 585.447C23.953 587.967 22.5638 594.687 25.1161 603.184C29.219 616.817 30.6405 617.431 45.9217 612.197C53.7723 609.516 57.8106 607.965 59.1998 604.185L44.1448 595.495C43.8864 596.464 43.6279 597.336 43.2402 597.982Z" fill="#FFA227"/>
<path d="M11.6116 639.303L-18.8538 647.767L-55.0699 657.815L-48.5439 685.954L-42.0179 714.093L-16.6892 706.792C8.12248 699.652 8.57477 699.168 5.31177 682.497C2.21031 666.667 0.95034 665.73 -12.9093 668.993C-30.1289 673.031 -33.392 687.149 -16.3662 683.919C-9.77559 682.659 -6.44795 684.08 -8.32175 687.311C-10.0663 690.348 -16.3339 693.74 -22.246 694.871C-30.3874 696.421 -33.6827 693.288 -35.9442 681.819C-38.7226 667.701 -37.398 666.344 -15.4616 660.528L7.99325 654.325L13.7762 679.945L19.5591 705.564L-11.8755 714.61L-43.3102 723.656L-35.7504 755.769L-28.4813 786.655L-12.5217 795.862L-19.7584 765.074L-27.3505 732.864L4.18101 723.785L35.7126 714.707L26.5374 676.197C26.5374 676.197 20.6898 651.612 18.7191 643.373C18.3638 641.952 17.3622 637.687 17.3622 637.687L11.6116 639.303Z" fill="#FFA227"/>
<path d="M51.123 678.33L47.0201 659.333L63.5612 655.456C72.6394 653.324 82.2992 647.735 85.013 643.083C88.3083 637.364 80.2639 637.203 60.492 642.566L31.0604 650.546L37.651 678.943C41.2694 694.548 46.697 705.08 49.7338 702.334C52.7384 699.588 53.3522 688.797 51.123 678.33Z" fill="#388CBA"/>
<path d="M57.3261 666.473C56.6476 667.636 57.6169 671.513 59.4584 675.067C61.2998 678.62 65.1121 677.522 67.9551 672.611C70.7981 667.701 69.8289 663.824 65.8228 664.018C61.8168 664.211 57.9722 665.342 57.3261 666.473Z" fill="#20C7AB"/>
<path d="M-18.2398 606.027L-14.1368 625.023L-30.678 628.9C-39.7562 631.032 -49.416 636.621 -52.1298 641.274C-55.4251 646.992 -47.3807 647.153 -27.6088 641.791L1.82278 633.811L-4.76781 605.413C-8.38618 589.809 -13.8138 579.277 -16.8506 582.023C-19.8229 584.801 -20.469 595.592 -18.2398 606.027Z" fill="#388CBA"/>
<path d="M34.6466 357.231L52.6092 367.602L52.9323 367.085L69.4735 339.398H43.4341C43.111 343.598 40.0741 348.831 34.7112 357.199C34.6789 357.199 34.6466 357.199 34.6466 357.231Z" fill="#FFA227"/>
<path d="M4.56876 339.85L22.7575 350.35H22.7899C25.2129 347.087 25.7621 342.887 24.4375 339.365H4.37487C4.34257 339.462 4.27797 339.559 4.24567 339.656L4.56876 339.85Z" fill="#BF2C2F"/>
<path d="M-9.51715 383.529L29.2188 406.725L52.6091 367.569L34.6141 357.167C22.1759 376.454 19.7852 376.874 0.82106 364.597C-14.7832 354.485 -17.8523 350.996 -11.5848 339.333H-35.7181L-48.2532 360.268L-9.51715 383.529Z" fill="#FFA227"/>
<path d="M4.56887 339.85L4.21349 339.656C2.72738 343.759 3.56732 348.508 6.79801 351.61C11.1594 355.777 18.1701 355.454 22.4023 350.867C22.5315 350.705 22.5961 350.511 22.7253 350.35L4.56887 339.85Z" fill="#BF2C2F"/>
<path d="M-98.8779 448.014L-60.142 471.21L-21.4059 494.406L2.63043 454.184L26.6668 413.962L-12.0692 390.766L-50.8052 367.569L-74.8416 407.791L-98.8779 448.014ZM-22.4074 409.665C-3.21712 422.103 -2.79711 424.333 -15.623 444.266C-28.4488 464.232 -30.6457 464.749 -49.836 452.31C-69.0264 439.872 -69.4463 437.643 -56.6205 417.71C-43.7623 397.744 -41.5978 397.227 -22.4074 409.665Z" fill="#BF2C2F"/>
<path d="M408.082 339.365H407.921L408.146 339.494C408.114 339.462 408.082 339.398 408.082 339.365Z" fill="#20C7AB"/>
<path d="M419.293 345.956L429.663 351.933C430.923 350.027 432.248 347.862 433.734 345.31C434.929 343.242 435.963 341.239 436.803 339.365H425.173C424.139 343.178 422.039 345.439 419.293 345.956Z" fill="#20C7AB"/>
<path d="M342.661 348.121C323.018 351.48 322.954 351.674 340.399 356.068C353.258 359.299 358.039 365.986 357.361 379.943C356.747 392.93 354.033 397.906 349.187 395.095C345.181 392.801 343.824 387.632 346.118 383.626C352.741 372.189 331.935 364.08 320.434 373.643C314.748 378.36 312.874 383.852 316.299 385.823C319.723 387.793 326.475 386.243 331.321 382.334C336.716 378.004 337.556 380.201 333.518 387.987C329.9 394.966 319.465 400.845 310.354 401.039C295.073 401.362 294.685 401.912 305.605 408.47C312.099 412.379 323.794 411.636 331.58 406.854C350.931 394.933 351.675 405.95 332.613 421.942C323.6 429.502 311.259 431.472 302.923 426.659C287.707 417.871 270.1 436.286 284.476 445.914C291.228 450.437 290.744 451.277 282.021 450.178C266.61 448.207 252.848 475.474 265.544 482.776C271.327 486.103 278.079 485.393 280.535 481.128C282.99 476.896 280.664 473.601 275.366 473.859C270.067 474.118 267.741 470.822 270.196 466.59C272.652 462.358 277.821 460.71 281.666 462.939C291.778 468.787 301.857 447.981 293.942 437.611C290.291 432.797 294.524 432.7 303.408 437.417C314.295 443.168 327.38 440.26 343.759 428.371L368.022 410.796L351.319 430.277C342.144 441.003 327.121 452.343 317.978 455.509C308.836 458.675 296.301 470.015 290.13 480.708C284.347 490.691 279.565 495.085 273.718 494.956L307.253 514.307C303.279 505.068 317.3 491.24 336.458 488.817C354.13 486.588 365.89 462.972 352.999 455.541C349.542 453.538 353.678 443.911 362.142 434.089L377.552 416.256L372.06 437.352C367.279 455.735 368.668 455.056 382.754 432.022C402.364 400.005 410.635 359.073 397.389 359.686C392.091 359.945 389.991 356.294 392.704 351.577C395.58 346.602 402.59 347.991 409.472 354.937C417.936 363.466 422.136 363.402 429.728 351.868L419.358 345.891C417.452 346.247 415.222 345.73 412.767 344.341C410.473 343.016 409.052 341.368 408.276 339.527L407.953 339.365H387.535C387.083 340.722 385.855 342.208 383.852 343.856C378.005 348.702 378.877 358.168 386.017 367.537C393.092 376.809 393.48 380.944 386.986 377.746C378.295 373.449 377.682 375.291 384.046 386.856C393.577 404.173 389.248 414.996 375.905 407.274C370.639 404.238 366.988 387.761 367.731 370.671C368.248 359.299 366.73 347.507 364.048 339.398H353.516C360.979 344.082 358.685 345.407 342.661 348.121ZM346.829 469.788C346.893 474.958 341.046 478.317 333.841 477.284C326.637 476.25 313.552 481.16 304.765 488.236C289.451 500.577 289.128 500.448 297.173 485.587C306.671 467.979 346.635 455.283 346.829 469.788Z" fill="#20C7AB"/>
<path d="M332.807 520.123C339.656 508.234 341.142 498.703 336.07 498.962C330.998 499.188 325.861 505.229 324.666 512.369C323.826 517.312 321.532 520.187 318.366 520.769L328.736 526.746C329.996 524.839 331.321 522.707 332.807 520.123Z" fill="#20C7AB"/>
<path d="M244.448 494.891C240.991 500.9 243.479 508.912 250.005 512.66C260.407 518.669 259.374 519.929 241.734 522.966C222.091 526.326 222.027 526.519 239.473 530.913C252.331 534.144 257.112 540.831 256.434 554.788C255.82 567.775 253.106 572.751 248.26 569.94C244.254 567.646 242.897 562.477 245.191 558.471C251.814 547.034 231.008 538.925 219.507 548.488C213.821 553.205 211.947 558.697 215.371 560.668C218.796 562.639 225.548 561.088 230.394 557.179C235.789 552.85 236.63 555.046 232.591 562.832C228.973 569.811 218.538 575.691 209.427 575.884C194.146 576.207 193.758 576.757 204.678 583.315C211.172 587.224 222.867 586.481 230.653 581.7C250.005 569.778 250.748 580.795 231.687 596.787C222.673 604.347 210.332 606.317 201.996 601.504C186.78 592.716 169.173 611.131 183.549 620.759C190.301 625.282 189.817 626.122 181.094 625.023C165.683 623.052 151.921 650.32 164.617 657.621C170.4 660.949 177.152 660.238 179.608 655.973C182.063 651.741 179.737 648.446 174.439 648.704C169.14 648.963 166.814 645.667 169.27 641.435C171.725 637.203 176.894 635.555 180.738 637.784C190.851 643.632 200.93 622.826 193.015 612.456C189.364 607.642 193.597 607.545 202.481 612.262C213.368 618.013 226.453 615.105 242.832 603.216L267.095 585.641L250.392 605.122C241.217 615.848 226.194 627.188 217.052 630.354C207.909 633.52 195.373 644.86 189.203 655.553C183.42 665.536 178.639 669.93 172.791 669.801L206.326 689.152C202.352 679.913 216.373 666.085 235.531 663.662C253.203 661.433 264.963 637.817 252.072 630.386C248.615 628.383 252.751 618.756 261.215 608.934L276.626 591.101L271.133 612.197C266.352 630.58 267.741 629.902 281.827 606.867C301.437 574.851 309.708 533.918 296.462 534.532C291.164 534.79 289.064 531.139 291.777 526.422C294.653 521.447 301.663 522.836 308.545 529.782C317.009 538.311 321.209 538.247 328.801 526.713L318.431 520.736C316.524 521.092 314.295 520.575 311.84 519.186C309.546 517.861 308.125 516.213 307.349 514.372L273.718 494.956C271.036 494.891 268.161 493.986 264.833 492.08C256.983 487.557 247.937 488.817 244.448 494.891ZM245.902 644.634C245.966 649.803 240.119 653.163 232.914 652.129C225.71 651.095 212.625 656.006 203.838 663.081C188.525 675.422 188.201 675.293 196.246 660.432C205.744 642.792 245.708 630.095 245.902 644.634ZM270.487 503.388C287.448 508.912 290.324 512.466 282.861 518.669C277.013 523.515 277.885 532.981 285.025 542.35C292.1 551.622 292.488 555.757 285.994 552.559C277.304 548.262 276.69 550.103 283.055 561.669C292.585 578.986 288.256 589.809 274.913 582.087C269.647 579.05 265.996 562.574 266.74 545.451C267.515 528.361 263.67 510.269 258.243 505.261C252.395 499.866 257.338 499.123 270.487 503.388Z" fill="#20C7AB"/>
<path d="M231.848 694.935C238.697 683.047 240.183 673.516 235.111 673.774C230.039 674.001 224.902 680.042 223.707 687.182C222.867 692.125 220.573 695 217.407 695.582L227.777 701.558C229.07 699.652 230.394 697.52 231.848 694.935Z" fill="#20C7AB"/>
<path d="M151.081 805.199C147.624 803.196 151.759 793.568 160.223 783.747L175.634 765.914L170.142 787.01C165.36 805.393 166.749 804.714 180.835 781.679C200.446 749.663 208.716 708.73 195.47 709.344C190.172 709.603 188.072 705.952 190.786 701.235C193.661 696.26 200.672 697.649 207.553 704.595C216.018 713.124 220.217 713.06 227.81 701.526L217.439 695.549C215.533 695.905 213.304 695.388 210.848 693.998C208.555 692.674 207.133 691.026 206.358 689.185L172.726 669.768C170.045 669.704 167.169 668.799 163.842 666.893C156.056 662.402 147.01 663.63 143.488 669.704C140.032 675.713 142.519 683.725 149.045 687.472C159.448 693.482 158.414 694.742 140.775 697.778C121.132 701.138 121.067 701.332 138.513 705.726C151.371 708.957 156.153 715.644 155.474 729.601C154.86 742.588 152.147 747.563 147.301 744.753C143.295 742.459 141.938 737.29 144.232 733.284C150.854 721.847 130.049 713.738 118.548 723.301C112.862 728.018 110.988 733.51 114.412 735.48C117.837 737.451 124.589 735.901 129.435 731.991C134.83 727.662 135.67 729.859 131.632 737.645C128.013 744.623 117.578 750.503 108.468 750.697C93.1866 751.02 92.7989 751.569 103.719 758.128C110.212 762.037 121.907 761.294 129.693 756.512C149.045 744.591 149.788 755.608 130.727 771.6C121.714 779.16 109.372 781.13 101.037 776.317C85.8206 767.529 68.2133 785.944 82.5899 795.571C89.3421 800.094 88.8575 800.934 80.1346 799.836C64.7242 797.865 50.9614 825.132 63.658 832.434C69.441 835.761 76.1931 835.05 78.6485 830.786C81.1038 826.554 78.7777 823.291 73.4793 823.517C68.181 823.743 65.8549 820.48 68.3103 816.248C70.7656 812.016 75.9347 810.368 79.7792 812.597C89.8913 818.445 99.971 797.639 92.0558 787.269C88.4051 782.455 92.6374 782.358 101.522 787.075C112.409 792.825 125.494 789.918 141.873 778.029L166.136 760.454L149.433 779.935C140.258 790.661 125.235 802 116.092 805.167C106.949 808.333 94.4142 819.672 88.2436 830.366C83.6883 838.217 79.7469 842.61 75.4501 844.064H90.8605C91.7005 842.158 93.2189 839.25 95.3835 835.244C104.882 817.637 144.813 804.94 145.007 819.479C145.071 824.648 139.224 828.008 132.02 826.974C124.815 825.94 111.731 830.851 102.943 837.926C99.6803 840.543 97.128 842.61 95.1573 844.064H117.74C122.489 841.35 128.24 839.315 134.572 838.507C152.211 836.246 163.971 812.63 151.081 805.199ZM173.986 756.9C168.72 753.863 165.069 737.387 165.813 720.296C166.588 703.206 162.743 685.114 157.316 680.106C151.436 674.711 156.411 673.936 169.528 678.233C186.489 683.757 189.364 687.311 181.901 693.514C176.054 698.36 176.926 707.826 184.066 717.195C191.141 726.467 191.529 730.602 185.035 727.404C176.345 723.107 175.731 724.948 182.095 736.514C191.69 753.799 187.361 764.621 173.986 756.9Z" fill="#20C7AB"/>
<path d="M728.05 511.884C735.772 498.542 742.298 495.828 752.604 501.772C762.909 507.717 769.435 505.035 777.157 491.66C785.557 477.09 791.178 475.474 805.232 483.583C818.09 491.014 820.545 497.605 814.374 508.266C809.69 516.375 801.29 520.123 795.443 516.763C789.66 513.435 786.914 507.2 789.369 502.968C791.824 498.735 795.798 499.091 798.253 503.808C800.676 508.524 804.682 508.88 807.138 504.648C809.593 500.415 806.847 494.212 801.064 490.853C795.216 487.46 786.784 491.24 782.132 499.349C775.961 510.043 778.384 516.634 791.275 524.032C807.655 533.498 810.207 531.721 829.849 497.734C849.46 463.747 849.718 460.646 833.339 451.18C822.419 444.88 813.405 445.171 809.496 451.987C806.039 457.996 808.753 466.041 815.537 469.885C826.102 475.862 826.942 474.958 821.417 463.715C815.893 452.472 816.765 451.6 827.297 457.544C834.082 461.389 836.795 469.433 833.339 475.442C829.429 482.227 820.416 482.55 809.496 476.25C795.475 468.141 794.053 462.487 802.453 447.917C811.338 432.539 816.248 431.602 834.017 441.875C855.081 454.023 855.081 454.023 880.313 410.311C885.934 400.555 890.166 392.769 893.236 386.404L886.063 382.269L884.157 385.823C875.111 402.849 870.362 404.561 855.76 396.129C842.901 388.698 835.955 389.893 829.817 400.555C824.196 410.279 826.07 417.839 835.439 423.234C843.16 427.692 851.301 428.177 853.563 424.268C855.792 420.391 851.818 416.353 844.678 415.319C837.571 414.285 833.823 409.794 836.375 405.368C838.928 400.942 847.36 400.942 855.081 405.401C864.45 410.796 866.324 418.356 860.702 428.08C853.724 440.163 847.618 439.937 824.713 426.723C801.678 413.413 795.055 413.219 784.62 425.431C777.738 433.475 779.741 425.883 789.046 408.567C799.093 389.861 809.108 378.877 813.728 381.558C817.993 384.014 816.83 389.926 811.144 394.642C805.458 399.359 803.842 405.013 807.59 407.145C811.338 409.31 818.187 404.528 822.807 396.516C828.428 386.792 826.554 379.232 817.185 373.837C803.972 366.212 800.353 370.574 754.8 449.5L715.806 517.021L723.689 521.576C724.367 518.83 725.853 515.664 728.05 511.884ZM755.382 466.945C762.328 453.603 770.922 444.363 774.54 446.43C778.126 448.498 786.687 443.62 793.569 435.575C804.295 423.04 804.553 423.88 795.475 441.52C789.627 452.827 781.906 460.387 778.32 458.32C774.701 456.252 765.236 462.778 757.288 472.89C743.784 489.98 743.654 489.56 755.382 466.945ZM766.334 480.547C772.117 470.531 776.091 467.365 775.121 473.471C774.185 479.61 769.435 487.783 764.622 491.693C759.776 495.602 760.551 490.562 766.334 480.547Z" fill="#BF2C2F"/>
<path d="M627.123 686.697C634.845 673.354 641.371 670.641 651.677 676.585C661.982 682.529 668.508 679.848 676.23 666.473C684.63 651.902 690.251 650.287 704.304 658.396C717.163 665.827 719.618 672.417 713.447 683.079C708.763 691.188 700.363 694.935 694.515 691.575C688.733 688.248 685.987 682.013 688.442 677.78C690.897 673.548 694.871 673.904 697.326 678.62C699.749 683.337 703.755 683.692 706.211 679.46C708.666 675.228 705.92 669.025 700.137 665.665C694.289 662.273 685.857 666.053 681.205 674.162C675.034 684.856 677.457 691.446 690.348 698.844C706.728 708.31 709.28 706.534 728.922 672.547C748.533 638.56 748.791 635.458 732.412 625.992C721.492 619.692 712.478 619.983 708.569 626.8C705.112 632.809 707.826 640.854 714.61 644.698C725.175 650.675 726.015 649.77 720.49 638.527C714.966 627.285 715.838 626.412 726.37 632.357C733.155 636.201 735.868 644.246 732.412 650.255C728.502 657.039 719.489 657.362 708.569 651.063C694.548 642.954 693.126 637.3 701.526 622.729C710.411 607.351 715.321 606.414 733.09 616.688C754.154 628.835 754.154 628.835 779.386 585.124C785.007 575.367 789.239 567.581 792.309 561.217L785.136 557.082L783.23 560.635C774.184 577.661 769.435 579.373 754.833 570.941C741.974 563.511 735.028 564.706 728.89 575.367C723.269 585.092 725.142 592.652 734.511 598.047C742.233 602.505 750.374 602.99 752.636 599.081C754.865 595.204 750.891 591.165 743.751 590.132C736.644 589.098 732.896 584.607 735.448 580.181C738.001 575.755 746.433 575.755 754.154 580.213C763.523 585.609 765.397 593.169 759.775 602.893C752.797 614.976 746.691 614.75 723.786 601.536C700.751 588.226 694.128 588.032 683.693 600.244C676.811 608.288 678.814 600.696 688.119 583.379C698.166 564.674 708.181 553.689 712.801 556.371C717.066 558.826 715.903 564.738 710.217 569.455C704.531 574.172 702.915 579.826 706.663 581.958C710.41 584.123 717.26 579.341 721.879 571.329C727.501 561.605 725.627 554.045 716.258 548.65C703.045 541.025 699.426 545.386 653.873 624.312L614.879 691.834L622.762 696.389C623.44 693.643 624.926 690.477 627.123 686.697ZM654.455 641.758C661.401 628.415 669.994 619.176 673.613 621.243C677.199 623.311 685.76 618.432 692.642 610.388C703.368 597.853 703.626 598.693 694.548 616.333C688.7 627.64 680.979 635.2 677.393 633.132C673.774 631.064 664.308 637.591 656.361 647.703C642.857 664.793 642.727 664.373 654.455 641.758ZM665.407 655.359C671.19 645.344 675.164 642.178 674.194 648.284C673.258 654.422 668.508 662.596 663.695 666.505C658.849 670.414 659.624 665.374 665.407 655.359Z" fill="#BF2C2F"/>
<path d="M764.783 545.419L757.546 541.251C753.12 546.162 744.882 545.903 735.093 540.217C724.722 534.208 721.266 529.556 723.592 521.609L715.709 517.053L706.34 533.304L730.893 547.486C751.473 559.375 756.351 559.408 764.783 545.419Z" fill="#BF2C2F"/>
<path d="M693.094 710.217C686.116 706.178 678.911 711.024 671.707 724.561L671.642 724.722L678.459 728.664L693.094 715.063L684.113 731.927L691.285 736.062C698.909 720.232 698.942 713.577 693.094 710.217Z" fill="#BF2C2F"/>
<path d="M658.009 689.96C647.089 683.66 638.076 683.951 634.166 690.768C631.905 694.709 632.325 699.523 634.78 703.464L649.254 711.799C649.835 710.733 648.737 707.826 646.12 702.527C640.595 691.285 641.468 690.412 652 696.357C658.784 700.201 661.498 708.246 658.041 714.255C657.654 714.933 657.169 715.515 656.652 716.064L663.889 720.232C664.276 719.585 664.664 718.972 665.052 718.293C673.452 703.723 672.03 698.037 658.009 689.96Z" fill="#BF2C2F"/>
<path d="M631.388 800.838C620.468 794.538 611.455 794.828 607.545 801.645C604.089 807.654 606.802 815.699 613.587 819.543C624.151 825.52 624.991 824.615 619.467 813.373C613.942 802.13 614.814 801.258 625.347 807.202C632.131 811.047 634.845 819.091 631.388 825.1C627.479 831.885 618.465 832.208 607.545 825.908C593.524 817.799 592.103 812.145 600.503 797.575C609.387 782.196 614.298 781.26 632.066 791.533C653.131 803.681 653.13 803.681 678.362 759.969C683.984 750.213 688.216 742.427 691.285 736.062L684.113 731.927L682.207 735.481C673.161 752.506 668.412 754.219 653.809 745.787C640.951 738.356 634.005 739.551 627.867 750.213C622.245 759.937 624.119 767.497 633.488 772.892C641.209 777.35 649.351 777.835 651.612 773.926C653.841 770.049 649.868 766.011 642.728 764.977C635.62 763.943 631.873 759.452 634.425 755.026C636.977 750.6 645.409 750.6 653.131 755.059C662.5 760.454 664.373 768.014 658.752 777.738C651.774 789.821 645.668 789.595 622.762 776.381C599.727 763.071 593.104 762.877 582.669 775.089C575.788 783.133 577.791 775.541 587.095 758.225C597.143 739.519 607.158 728.535 611.778 731.216C616.042 733.671 614.879 739.584 609.193 744.3C603.507 749.017 601.892 754.671 605.639 756.803C609.387 758.968 616.236 754.186 620.856 746.174C626.477 736.45 624.604 728.89 615.235 723.495C602.021 715.87 598.403 720.232 552.85 799.158L526.972 844H573.688C574.237 843.127 574.786 842.223 575.335 841.286C583.735 826.715 589.357 825.1 603.41 833.209C609.678 836.827 613.458 840.252 614.976 844.032H629.902C647.541 813.179 647.218 809.98 631.388 800.838ZM553.528 816.603C560.474 803.261 569.068 794.021 572.686 796.088C576.272 798.156 584.834 793.278 591.715 785.233C602.441 772.698 602.699 773.538 593.621 791.178C587.774 802.485 580.052 810.045 576.466 807.977C572.848 805.91 563.382 812.436 555.434 822.548C541.93 839.606 541.801 839.186 553.528 816.603ZM562.736 841.35C557.89 845.227 558.665 840.22 564.448 830.205C570.231 820.189 574.205 817.023 573.236 823.129C572.331 829.268 567.582 837.441 562.736 841.35Z" fill="#BF2C2F"/>
<path d="M634.166 715.03C623.796 709.021 620.339 704.369 622.665 696.422L614.782 691.866L605.413 708.117L629.966 722.299C650.546 734.188 655.424 734.221 663.889 720.232L656.652 716.064C652.194 720.975 643.955 720.684 634.166 715.03Z" fill="#BF2C2F"/>
<path d="M640.175 708.633C645.732 711.767 648.543 712.963 649.221 711.767L634.748 703.432C636.04 705.5 637.849 707.341 640.175 708.633Z" fill="#BF2C2F"/>
<path d="M226.001 466.202C231.783 456.187 233.366 446.172 229.49 443.943C225.645 441.714 217.73 448.078 211.947 458.093C211.753 458.416 211.624 458.707 211.462 459.03L225.419 467.107C225.613 466.816 225.807 466.525 226.001 466.202Z" fill="#BF2C2F"/>
<path d="M254.722 400.264C258.566 402.493 267.418 394.481 274.364 382.463C281.31 370.445 283.83 358.782 279.953 356.553C276.109 354.323 267.257 362.336 260.311 374.354C253.365 386.372 250.845 398.035 254.722 400.264Z" fill="#388CBA"/>
<path d="M263.154 434.251C269.227 423.751 267.03 417.387 255.271 411.41C243.026 405.175 241.54 405.724 249.358 413.574C255.045 419.293 257.855 427.24 255.561 431.182C253.268 435.123 249.423 434.509 247 429.792C244.577 425.076 240.571 424.72 238.116 428.953C235.66 433.185 238.406 439.388 244.189 442.748C250.069 446.14 258.469 442.36 263.154 434.251Z" fill="#FFA227"/>
<path d="M288.611 341.562C286.156 345.794 288.902 351.997 294.685 355.357C300.533 358.749 308.965 354.97 313.617 346.861C315.2 344.115 316.202 341.627 316.654 339.398H306.8C306.962 341.11 306.736 342.628 306.057 343.791C303.763 347.733 299.919 347.119 297.496 342.402C296.785 341.013 295.913 340.012 295.008 339.398H290.518C289.807 339.85 289.161 340.593 288.611 341.562Z" fill="#FFA227"/>
<path d="M125.074 641.047C130.857 631.032 132.44 621.017 128.563 618.788C124.718 616.559 116.803 622.923 111.02 632.938C110.826 633.261 110.697 633.552 110.536 633.875L124.492 641.952C124.686 641.629 124.88 641.338 125.074 641.047Z" fill="#BF2C2F"/>
<path d="M153.794 575.077C157.639 577.306 166.491 569.294 173.437 557.275C180.383 545.257 182.903 533.595 179.026 531.365C175.182 529.136 166.33 537.148 159.384 549.167C152.438 561.185 149.918 572.847 153.794 575.077Z" fill="#388CBA"/>
<path d="M162.227 609.064C168.3 598.564 166.103 592.199 154.344 586.223C142.099 579.987 140.613 580.536 148.432 588.387C154.118 594.105 156.928 602.053 154.634 605.994C152.341 609.936 148.496 609.322 146.073 604.605C143.65 599.888 139.644 599.533 137.189 603.765C134.733 607.997 137.479 614.2 143.262 617.56C149.142 620.952 157.542 617.173 162.227 609.064Z" fill="#FFA227"/>
<path d="M212.69 521.673C218.764 511.174 216.567 504.809 204.807 498.832C192.563 492.597 191.077 493.146 198.895 500.997C204.581 506.715 207.392 514.663 205.098 518.604C202.804 522.546 198.96 521.932 196.537 517.215C194.114 512.498 190.108 512.143 187.652 516.375C185.197 520.607 187.943 526.81 193.726 530.17C199.606 533.53 208.006 529.75 212.69 521.673Z" fill="#FFA227"/>
<path d="M208.458 480.385C212.205 482.55 219.701 476.605 225.419 467.107L211.462 459.03C206.132 468.755 204.71 478.22 208.458 480.385Z" fill="#BF2C2F"/>
<path d="M52.8676 749.889C56.7121 752.119 65.5642 744.106 72.5102 732.088C79.4562 720.07 81.9761 708.407 78.0993 706.178C74.2548 703.949 65.4027 711.961 58.4567 723.979C51.5107 735.997 48.9908 747.66 52.8676 749.889Z" fill="#388CBA"/>
<path d="M111.763 696.486C117.837 685.986 115.64 679.622 103.88 673.645C91.6358 667.41 90.1497 667.959 97.968 675.81C103.654 681.528 106.465 689.476 104.171 693.417C101.877 697.358 98.0326 696.745 95.6096 692.028C93.1866 687.311 89.1805 686.956 86.7252 691.188C84.2699 695.42 87.016 701.623 92.7989 704.983C98.6788 708.343 107.079 704.563 111.763 696.486Z" fill="#FFA227"/>
<path d="M107.531 655.198C111.279 657.362 118.774 651.418 124.492 641.92L110.535 633.843C105.173 643.567 103.783 653.033 107.531 655.198Z" fill="#BF2C2F"/>
<path d="M91.7975 346.214C104.042 352.45 105.528 351.9 97.7096 344.05C96.2558 342.596 94.9958 341.013 93.962 339.365H82.7192C84.5607 341.821 87.533 344.05 91.7975 346.214Z" fill="#388CBA"/>
<path d="M88.179 364.662C84.4314 362.497 76.9362 368.442 71.2179 377.94L85.1745 386.017C90.5052 376.292 91.8943 366.826 88.179 364.662Z" fill="#20C7AB"/>
<path d="M84.69 386.921C84.8838 386.598 85.0131 386.307 85.1746 385.984L71.218 377.908C71.0241 378.198 70.8303 378.489 70.6688 378.812C64.8858 388.827 63.3028 398.842 67.1796 401.072C70.9918 403.301 78.907 396.936 84.69 386.921Z" fill="#20C7AB"/>
<path d="M41.9155 444.783C38.071 442.554 29.2189 450.566 22.2729 462.584C15.3269 474.602 12.807 486.265 16.6838 488.494C20.5284 490.723 29.3804 482.711 36.3264 470.693C43.2401 458.675 45.7601 447.012 41.9155 444.783Z" fill="#20C7AB"/>
<path d="M41.3341 433.605C53.5784 439.84 55.0645 439.291 47.2462 431.44C41.5602 425.722 38.7495 417.774 41.0433 413.833C43.3371 409.891 47.1816 410.505 49.6046 415.222C52.0277 419.939 56.0337 420.294 58.489 416.062C60.9444 411.83 58.1983 405.627 52.4154 402.267C46.5678 398.875 38.1357 402.655 33.4835 410.764C27.4098 421.263 29.6067 427.66 41.3341 433.605Z" fill="#388CBA"/>
<path d="M-16.98 498.186C-23.0537 508.686 -20.8568 515.051 -9.09711 521.027C3.14722 527.263 4.63334 526.713 -3.18493 518.863C-8.87095 513.144 -11.6817 505.197 -9.38786 501.255C-7.09407 497.314 -3.24956 497.928 -0.826544 502.645C1.59648 507.361 5.60254 507.717 8.05786 503.485C10.5132 499.252 7.76713 493.049 1.98419 489.69C-3.89567 486.33 -12.3278 490.077 -16.98 498.186Z" fill="#388CBA"/>
<path d="M702.721 742.685L712.834 748.533C731.345 716.775 750.891 683.046 771.115 647.993C785.815 622.536 800.03 597.691 813.793 573.687L803.681 567.84C770.178 625.572 735.125 685.986 702.721 742.685Z" fill="#388CBA"/>
<path d="M726.435 466.041C726.37 460.193 723.495 453.797 720.103 451.826C709.247 445.558 695.226 458.19 698.457 471.275C702.366 486.911 726.661 482.356 726.435 466.041Z" fill="#FFA227"/>
<path d="M692.157 493.954C679.396 486.588 675.39 485.522 674.356 493.211L700.848 508.492C707.955 504.357 705.371 501.578 692.157 493.954Z" fill="#388CBA"/>
<path d="M675.971 553.463C675.907 547.616 673.031 541.219 669.639 539.248C658.784 532.981 644.763 545.613 647.994 558.697C651.903 574.301 676.198 569.778 675.971 553.463Z" fill="#FFA227"/>
<path d="M693.87 511.949C696.874 510.657 699.071 509.558 700.848 508.524L674.356 493.243C674.033 495.537 673.968 498.542 674.033 502.515C674.227 513.08 675.002 521.157 675.745 520.51C676.488 519.8 684.662 515.955 693.87 511.949Z" fill="#388CBA"/>
<path d="M643.406 599.339C658.364 592.813 658.203 590.875 641.694 581.344C625.12 571.781 623.279 572.654 623.57 589.873C623.763 600.438 624.539 608.514 625.282 607.868C626.025 607.222 634.199 603.378 643.406 599.339Z" fill="#388CBA"/>
<path d="M625.508 640.854C625.443 635.006 622.568 628.609 619.176 626.639C608.321 620.371 594.299 633.003 597.53 646.087C601.439 661.724 625.734 657.169 625.508 640.854Z" fill="#FFA227"/>
<path d="M591.23 668.767C578.469 661.401 574.463 660.335 573.429 668.024L599.921 683.305C606.996 679.17 604.444 676.391 591.23 668.767Z" fill="#388CBA"/>
<path d="M568.712 714.061C557.857 707.794 543.836 720.426 547.067 733.51C550.944 749.146 575.239 744.623 575.045 728.276C574.98 722.396 572.105 716 568.712 714.061Z" fill="#FFA227"/>
<path d="M592.943 686.762C595.947 685.47 598.144 684.371 599.921 683.337L573.429 668.056C573.106 670.35 573.042 673.354 573.106 677.328C573.3 687.893 574.075 695.969 574.818 695.323C575.562 694.612 583.735 690.8 592.943 686.762Z" fill="#388CBA"/>
<path d="M468.593 364.952C468.399 354.388 467.624 346.311 466.881 346.958C466.138 347.604 457.997 351.448 448.757 355.487C445.752 356.779 443.556 357.877 441.779 358.911L468.27 374.192C468.561 371.898 468.658 368.894 468.593 364.952Z" fill="#BF2C2F"/>
<path d="M393.673 483.583C389.797 467.947 365.502 472.47 365.696 488.817C365.76 494.665 368.636 501.062 372.028 503.032C382.883 509.268 396.936 496.668 393.673 483.583Z" fill="#388CBA"/>
<path d="M367.634 539.765C367.44 529.201 366.665 521.124 365.922 521.77C365.179 522.416 357.037 526.261 347.798 530.299C344.793 531.592 342.596 532.69 340.819 533.724L367.311 549.005C367.634 546.744 367.731 543.739 367.634 539.765Z" fill="#BF2C2F"/>
<path d="M418.097 452.343C417.903 441.778 417.128 433.702 416.385 434.348C415.642 434.994 407.501 438.838 398.261 442.877C383.303 449.403 383.464 451.341 399.973 460.872C416.547 470.434 418.42 469.562 418.097 452.343Z" fill="#20C7AB"/>
<path d="M444.137 396.161C440.26 380.524 415.965 385.047 416.159 401.395C416.224 407.242 419.099 413.639 422.491 415.61C433.347 421.877 447.4 409.245 444.137 396.161Z" fill="#388CBA"/>
<path d="M468.27 374.225L441.779 358.943C434.703 363.079 437.288 365.857 450.469 373.481C463.198 380.815 467.204 381.914 468.27 374.225Z" fill="#BF2C2F"/>
<path d="M292.747 658.396C288.87 642.76 264.575 647.283 264.769 663.63C264.833 669.478 267.709 675.874 271.101 677.845C281.956 684.08 296.01 671.481 292.747 658.396Z" fill="#388CBA"/>
<path d="M266.707 714.578C266.513 704.014 265.738 695.937 264.995 696.583C264.252 697.229 256.111 701.074 246.871 705.112C243.866 706.404 241.669 707.503 239.892 708.537L266.384 723.818C266.707 721.556 266.772 718.552 266.707 714.578Z" fill="#BF2C2F"/>
<path d="M317.171 627.156C316.977 616.591 316.201 608.515 315.458 609.161C314.715 609.807 306.574 613.651 297.334 617.69C282.376 624.216 282.537 626.154 299.046 635.685C315.62 645.247 317.494 644.375 317.171 627.156Z" fill="#20C7AB"/>
<path d="M343.21 570.974C339.333 555.337 315.038 559.86 315.232 576.207C315.297 582.055 318.172 588.452 321.564 590.422C332.419 596.69 346.473 584.058 343.21 570.974Z" fill="#388CBA"/>
<path d="M367.343 549.037L340.852 533.756C333.776 537.891 336.361 540.67 349.542 548.294C362.271 555.628 366.277 556.726 367.343 549.037Z" fill="#BF2C2F"/>
<path d="M266.417 723.85L239.925 708.569C232.85 712.704 235.434 715.483 248.615 723.107C261.344 730.473 265.35 731.539 266.417 723.85Z" fill="#BF2C2F"/>
</g>
</svg>
