<svg width="94" height="16" viewBox="0 0 94 16" fill="none" xmlns="http://www.w3.org/2000/svg">
<path d="M14.0631 1.94086C13.7283 2.61053 13.3934 3.2802 12.7238 3.61503C13.226 3.61503 13.7283 3.44762 14.3979 3.11278C14.0631 3.61503 13.5608 4.11729 13.226 4.45212C12.8912 4.61954 12.8912 4.78696 12.8912 4.95438C12.8912 5.95888 12.7238 6.96339 12.3889 7.9679C12.0541 8.9724 11.3844 9.97691 10.7147 10.814C10.0451 11.4837 9.20798 12.1533 8.20347 12.6556C7.70122 12.9904 7.03155 13.1578 6.36188 13.3253C5.52479 13.4927 4.85512 13.4927 4.18545 13.4927C3.51577 13.4927 2.8461 13.3253 2.00901 13.1578C1.33934 12.9904 0.669671 12.6556 0 12.3208C1.67418 12.4882 3.01352 11.9859 4.35286 11.1488C3.68319 11.1488 3.18094 10.9814 2.67868 10.4792C2.17643 9.97691 1.8416 9.47466 1.50676 8.9724C1.67418 8.9724 2.00901 8.9724 2.17643 8.9724C2.34385 8.9724 2.51127 8.9724 2.8461 8.80499C1.33934 8.47015 0.669671 7.46564 0.502253 5.95888C1.00451 6.1263 1.33934 6.29372 1.8416 6.29372C0.502253 5.12179 0.167418 3.78245 1.00451 2.27569C2.67868 4.11729 4.6877 5.28921 7.19897 5.45663V5.28921C6.86413 4.11729 7.19897 3.2802 8.03606 2.44311C8.53831 2.10827 9.04056 1.77344 9.71023 1.77344C10.2125 1.77344 10.8822 1.77344 11.3844 2.10827C11.7192 2.27569 11.8867 2.44311 12.0541 2.61053H12.2215C12.8912 2.61053 13.3934 2.27569 14.0631 1.94086Z" fill="white"/>
<path d="M31.7927 0.0998535C32.1276 0.0998535 32.4624 0.0998535 32.6298 0.0998535C32.6298 0.0998535 32.6298 0.0998535 32.7973 0.0998535C33.9692 0.0998535 35.1411 0.602107 36.1456 1.10436C38.1546 2.27629 39.3266 3.95046 39.6614 6.29431C39.6614 6.62915 39.6614 6.79657 39.8288 7.1314C39.8288 7.46624 39.8288 7.80107 39.8288 7.96849C39.8288 8.13591 39.8288 8.13591 39.8288 8.30333C39.6614 9.97751 38.9917 11.3168 37.9872 12.4888C36.8153 13.8281 35.3085 14.4978 33.6343 14.8326C33.2995 14.8326 33.1321 14.8326 32.7973 15C32.4624 15 32.1276 15 31.9602 15C31.9602 15 31.9602 15 31.7927 15C30.6208 15 29.4489 14.4978 28.4444 13.9955C26.4354 12.8236 25.2635 11.1494 24.9286 8.80558C24.9286 8.47074 24.9286 8.30333 24.7612 7.96849C24.7612 7.63366 24.7612 7.29882 24.7612 7.1314C24.7612 6.96398 24.7612 6.96398 24.7612 6.79657C24.9286 5.12239 25.5983 3.78305 26.6028 2.61112C27.7747 1.27178 29.2815 0.602107 30.9557 0.267271C31.2905 0.0998535 31.4579 0.0998535 31.7927 0.0998535ZM34.1366 7.96849C34.1366 7.46624 34.304 6.96398 34.304 6.46173C33.8018 6.46173 33.2995 6.46173 32.9647 6.46173C32.9647 6.12689 32.9647 5.79206 32.9647 5.45722C32.9647 5.28981 33.1321 5.12239 33.2995 5.12239C33.4669 5.12239 33.6343 5.12239 33.8018 5.12239C33.9692 5.12239 34.1366 5.12239 34.304 5.12239C34.304 4.62013 34.304 4.11788 34.304 3.61563C33.6343 3.61563 33.1321 3.61563 32.6298 3.61563C31.9602 3.61563 31.6253 4.11788 31.2905 4.62013C31.1231 4.95497 31.1231 5.28981 31.1231 5.62464C31.1231 5.79206 31.1231 6.1269 31.1231 6.29431C30.7882 6.29431 30.6208 6.29431 30.286 6.29431C30.286 6.79657 30.286 7.29882 30.286 7.80107C30.6208 7.80107 30.7882 7.80107 31.1231 7.80107C31.1231 9.30783 31.1231 10.6472 31.1231 12.1539C31.7927 12.1539 32.295 12.1539 32.9647 12.1539C32.9647 10.6472 32.9647 9.30783 32.9647 7.80107C33.2995 7.96849 33.8018 7.96849 34.1366 7.96849Z" fill="white"/>
<path d="M60.8294 0.222059C56.8114 -0.782448 52.9608 1.72882 51.7888 5.57943C51.6214 6.08168 51.6214 6.58394 51.6214 7.08619V7.25361C51.6214 7.42103 51.6214 7.58844 51.6214 7.75586C51.6214 7.92328 51.6214 8.0907 51.6214 8.25811C51.7888 10.0997 52.6259 11.6065 53.9653 12.9458C55.1372 13.9503 56.4765 14.62 57.9833 14.7874C58.1507 14.7874 58.4856 14.7874 58.653 14.7874H58.8204C58.9878 14.7874 59.1552 14.7874 59.3226 14.7874C59.4901 14.7874 59.6575 14.7874 59.9923 14.7874C61.3317 14.62 62.671 14.1177 63.8429 13.2806C65.3497 12.1087 66.3542 10.4345 66.689 8.59295C67.1913 4.90976 64.68 1.22657 60.8294 0.222059ZM54.8024 4.57492C56.3091 4.57492 57.8159 4.57492 59.1552 4.57492C60.4946 4.57492 62.0013 4.57492 63.3407 4.57492H63.5081C63.6755 4.57492 63.6755 4.74234 63.6755 4.74234C63.6755 4.90976 63.5081 5.07718 63.3407 5.07718C62.1687 5.74685 60.8294 6.41652 59.6575 7.08619C59.3226 7.25361 58.9878 7.25361 58.653 7.08619C57.481 6.41652 56.1417 5.74685 54.9698 5.07718C54.8024 5.07718 54.8024 4.90976 54.6349 4.74234C54.4675 4.74234 54.6349 4.57492 54.8024 4.57492ZM63.6755 10.0997C63.6755 10.4345 63.5081 10.602 63.1733 10.602C61.8339 10.602 60.4946 10.602 59.1552 10.602C57.8159 10.602 56.4765 10.602 55.1372 10.602C54.8024 10.602 54.4675 10.4345 54.4675 10.0997C54.4675 8.92779 54.4675 7.58844 54.4675 6.41652C54.4675 6.08168 54.4675 6.08168 54.8024 6.2491C55.9743 6.91877 57.3136 7.58844 58.4856 8.25811C58.8204 8.42553 59.1552 8.42553 59.4901 8.25811C60.662 7.58844 62.0013 6.91877 63.1733 6.2491C63.5081 6.08168 63.5081 6.08168 63.5081 6.41652C63.6755 7.58844 63.6755 8.76037 63.6755 10.0997Z" fill="white"/>
<path d="M85.943 1C86.3279 1 86.7201 1 87.105 1C87.1849 1.02088 87.2648 1.04872 87.3447 1.05568C91.5717 1.50807 94.5639 5.2455 93.9103 9.24741C93.3583 12.6299 90.4387 15.1424 86.8581 15.3234C83.3719 15.4973 80.1763 13.2424 79.2902 9.95035C79.1813 9.5258 79.1305 9.08733 79.0433 8.65582C79.0433 8.32871 79.0433 8.00856 79.0433 7.68145C79.0651 7.58401 79.1014 7.47961 79.1087 7.38217C79.421 4.41728 81.7669 1.86998 84.81 1.2088C85.1876 1.12528 85.5653 1.0696 85.943 1ZM85.5435 6.58179C85.5435 8.106 85.5435 9.5954 85.5435 11.0918C86.1463 11.0918 86.7201 11.0918 87.3374 11.0918C87.3374 10.3819 87.3302 9.68588 87.3447 8.99686C87.352 8.75326 87.381 8.50967 87.4464 8.27999C87.5408 7.9668 87.8604 7.7928 88.1799 7.84152C88.5213 7.89024 88.6811 8.11296 88.7029 8.41919C88.7246 8.66974 88.7101 8.92726 88.7101 9.18477C88.7101 9.81812 88.7101 10.4515 88.7101 11.0918C89.342 11.0918 89.923 11.0918 90.5186 11.0918C90.5186 9.98515 90.5476 8.91334 90.5113 7.83456C90.4895 7.14554 90.0755 6.67923 89.4509 6.54003C88.7464 6.38692 88.0782 6.48435 87.5335 6.99242C87.4536 7.06898 87.3665 7.13858 87.243 7.24994C87.2285 6.99242 87.214 6.79059 87.2067 6.58179C86.6257 6.58179 86.0955 6.58179 85.5435 6.58179ZM84.3379 6.60267C83.7206 6.60267 83.1323 6.60267 82.5512 6.60267C82.5512 8.11296 82.5512 9.5954 82.5512 11.0918C83.1541 11.0918 83.7351 11.0918 84.3379 11.0918C84.3379 9.58148 84.3379 8.09904 84.3379 6.60267ZM82.5222 5.04367C82.5222 5.4891 82.9362 5.85101 83.43 5.85101C83.9312 5.85101 84.3452 5.48214 84.3452 5.04367C84.3452 4.59824 83.9457 4.24329 83.43 4.24329C82.9144 4.24329 82.5222 4.59128 82.5222 5.04367Z" fill="white"/>
</svg>
